<svg xmlns="http://www.w3.org/2000/svg" xmlns:xlink="http://www.w3.org/1999/xlink" viewBox="0 0 436.15 340.45"><defs><style>.cls-1{isolation:isolate;}.cls-2{fill:#dae8ef;}.cls-3{fill:#ccd9e2;}.cls-4{fill:#bcced8;}.cls-5{fill:#112b46;}.cls-26,.cls-6{mix-blend-mode:screen;}.cls-7{fill:#1d262d;}.cls-8{fill:#606bf1;}.cls-9{fill:#fbd15b;}.cls-10{fill:#ff8578;}.cls-11{fill:#f9fbfc;}.cls-12{fill:#f1f2f2;}.cls-13{fill:url(#radial-gradient);}.cls-14{fill:url(#radial-gradient-2);}.cls-15{fill:#f7b094;}.cls-16{fill:#3d3d7a;}.cls-17{fill:#0a2033;}.cls-18{fill:#30475e;}.cls-19{fill:url(#radial-gradient-3);}.cls-20{fill:#56548c;}.cls-21{fill:url(#radial-gradient-4);}.cls-22{fill:#f4675d;}.cls-23{fill:url(#radial-gradient-5);}.cls-24{fill:#e8987c;}.cls-25{fill:url(#radial-gradient-6);}.cls-26{fill:#6d4b35;}.cls-27{fill:#abb5ba;}.cls-28{fill:#8495a0;}.cls-29{fill:none;}.cls-30{fill:#141b56;}.cls-31{fill:#a5b7c6;}.cls-32{fill:url(#linear-gradient);}.cls-33{fill:#747ded;}.cls-34{fill:url(#linear-gradient-2);}.cls-35{fill:url(#linear-gradient-3);}.cls-36{fill:#95a8b5;}</style><radialGradient id="radial-gradient" cx="277.52" cy="192.38" r="12.93" gradientUnits="userSpaceOnUse"><stop offset="0" stop-color="#ffc8af"/><stop offset="1" stop-color="#ffbb9c"/></radialGradient><radialGradient id="radial-gradient-2" cx="279.6" cy="169.19" r="20.38" gradientTransform="translate(-38.91 62.44) rotate(-12.15)" xlink:href="#radial-gradient"/><radialGradient id="radial-gradient-3" cx="220.22" cy="307.77" r="8.13" xlink:href="#radial-gradient"/><radialGradient id="radial-gradient-4" cx="168.75" cy="309.81" r="7.4" xlink:href="#radial-gradient"/><radialGradient id="radial-gradient-5" cx="243.56" cy="250.7" r="41.44" xlink:href="#radial-gradient"/><radialGradient id="radial-gradient-6" cx="243.56" cy="250.7" r="41.44" xlink:href="#radial-gradient"/><linearGradient id="linear-gradient" x1="489.92" y1="93.59" x2="450.58" y2="143.18" gradientTransform="matrix(0.78, -0.62, 0.62, 0.78, -58.1, 529.94)" gradientUnits="userSpaceOnUse"><stop offset="0" stop-color="#606bf1"/><stop offset="1" stop-color="#58479f"/></linearGradient><linearGradient id="linear-gradient-2" x1="592.93" y1="-19.93" x2="553.59" y2="29.66" gradientTransform="matrix(0.45, -0.89, 0.89, 0.45, 85.91, 842.98)" xlink:href="#linear-gradient"/><linearGradient id="linear-gradient-3" x1="552.57" y1="16.14" x2="503.89" y2="77.51" gradientTransform="translate(6.19 714.34) rotate(-52.61)" xlink:href="#linear-gradient"/></defs><g class="cls-1"><g id="BACKGROUND"><path class="cls-2" d="M465.68,304.58,449.91,415.29H49L37.16,330.84a21,21,0,0,1,12.74-22.3l35.58-14.77V258.38a21,21,0,0,1,18-20.77l8.42-1.23L126,188.59a21,21,0,0,1,20.12-15H290.66A21,21,0,0,1,311.58,193l68.84,7.27a21,21,0,0,1,18.75,19.64L402,267.69l48.65,13.74A21,21,0,0,1,465.68,304.58Z" transform="translate(-29.74 -79.77)"/><path class="cls-3" d="M73,327.42l12.52,87.87H403.78l9.4-67a16.7,16.7,0,0,0-10.12-17.71l-28.24-11.72V290.74a16.64,16.64,0,0,0-14.25-16.48l-6.68-1-11.21-37.93a16.65,16.65,0,0,0-16-11.94H212a16.66,16.66,0,0,0-16.61,15.45l-54.64,5.77a16.68,16.68,0,0,0-14.89,15.59l-2.2,37.91L85,309A16.66,16.66,0,0,0,73,327.42Z" transform="translate(-29.74 -79.77)"/><path class="cls-4" d="M335.57,382.55a19.06,19.06,0,0,0-16.3-18.87l-7.65-1.12-12.84-43.41a19,19,0,0,0-18.28-13.66H149.18a19,19,0,0,0-19,17.68l-56.86,6,12.27,86.12H337l-1.44-.59Z" transform="translate(-29.74 -79.77)"/></g><g id="OBJECTS"><rect class="cls-5" x="90.49" y="19.34" width="97.55" height="91.05"/><g class="cls-6"><rect class="cls-7" x="90.49" y="19.34" width="97.55" height="9.63"/></g><path class="cls-8" d="M196.7,104a1.77,1.77,0,1,1-1.77-1.76A1.77,1.77,0,0,1,196.7,104Z" transform="translate(-29.74 -79.77)"/><path class="cls-9" d="M204.07,104a1.77,1.77,0,1,1-1.77-1.76A1.77,1.77,0,0,1,204.07,104Z" transform="translate(-29.74 -79.77)"/><path class="cls-10" d="M210.91,104.23a1.77,1.77,0,1,1-1.76-1.77A1.76,1.76,0,0,1,210.91,104.23Z" transform="translate(-29.74 -79.77)"/><rect class="cls-10" x="107.83" y="37.92" width="13.82" height="1.16"/><rect class="cls-9" x="124.05" y="37.92" width="13.82" height="1.16"/><rect class="cls-8" x="112.11" y="44.18" width="21.43" height="1.16"/><rect class="cls-10" x="137.08" y="44.18" width="10.89" height="1.16"/><rect class="cls-9" x="119.54" y="50.44" width="9.41" height="1.16"/><rect class="cls-9" x="134.39" y="50.44" width="31.22" height="1.16"/><rect class="cls-8" x="126.85" y="56.69" width="35.68" height="1.16"/><rect class="cls-10" x="117.93" y="62.95" width="10.98" height="1.16"/><rect class="cls-8" x="133.61" y="62.95" width="10.98" height="1.16"/><rect class="cls-10" x="107.83" y="95.4" width="15.97" height="1.16"/><rect class="cls-9" x="129.4" y="95.4" width="15.97" height="1.16"/><rect class="cls-10" x="150.39" y="95.4" width="15.97" height="1.16"/><rect class="cls-8" x="112.11" y="89.15" width="31.22" height="1.16"/><rect class="cls-10" x="148.19" y="89.15" width="31.22" height="1.16"/><rect class="cls-10" x="119.54" y="82.89" width="30.98" height="1.16"/><rect class="cls-9" x="153.22" y="82.89" width="8.62" height="1.16"/><rect class="cls-9" x="117.52" y="76.64" width="11.66" height="1.16"/><rect class="cls-8" x="135.37" y="76.64" width="11.66" height="1.16"/><rect class="cls-10" x="154.53" y="76.64" width="11.66" height="1.16"/><rect class="cls-9" x="131.03" y="70.38" width="16.35" height="1.16"/><rect class="cls-8" x="108.51" y="70.38" width="16.35" height="1.16"/><rect class="cls-11" x="98.79" y="36.81" width="1.49" height="1.49"/><path class="cls-11" d="M130,171.13h-1.48v-3H130Zm0-7.58h-1.48v-3H130Zm0-7.58h-1.48v-3H130Zm0-7.58h-1.48v-3H130Zm0-7.58h-1.48v-3H130Zm0-7.58h-1.48v-3H130Zm0-7.58h-1.48v-3H130Z" transform="translate(-29.74 -79.77)"/><rect class="cls-11" x="98.79" y="95.9" width="1.49" height="1.49"/><rect class="cls-10" x="209.03" width="80.33" height="49.52"/><path class="cls-11" d="M270,99.69l-9.55,4.08,9.55,4-1.25,2.89-11.46-5.12V102l11.46-5.15Z" transform="translate(-29.74 -79.77)"/><path class="cls-11" d="M284.06,90.25l-6.94,26.65-3.3-.78,7-26.61Z" transform="translate(-29.74 -79.77)"/><path class="cls-11" d="M300.65,102v3.55l-11.47,5.12-1.25-2.89,9.53-4-9.53-4.08,1.25-2.83Z" transform="translate(-29.74 -79.77)"/><rect class="cls-8" x="286.6" y="95.93" width="45.75" height="32.6"/><path class="cls-12" d="M335.49,182.74c-1.48,0-2,.39-2,1.49v4.91c0,1.91-.79,2.5-2.12,2.87,1.33.35,2.12.94,2.12,2.83v4.9c0,1.1.52,1.5,2,1.5v2.15c-3.72,0-4.77-1.19-4.77-3.67v-4.65c0-1.33-.35-1.84-1.56-1.84v-2.46c1.21,0,1.56-.53,1.56-1.87v-4.64c0-2.5,1-3.67,4.77-3.67Z" transform="translate(-29.74 -79.77)"/><path class="cls-12" d="M347.73,184.26v4.64c0,1.34.35,1.87,1.59,1.87v2.46c-1.24,0-1.59.51-1.59,1.84v4.65c0,2.48-1.05,3.67-4.77,3.67v-2.15c1.45,0,2-.4,2-1.5v-4.9a2.46,2.46,0,0,1,2.13-2.83c-1.33-.37-2.13-1-2.13-2.87v-4.91c0-1.1-.49-1.49-2-1.49v-2.15C346.68,180.59,347.73,181.76,347.73,184.26Z" transform="translate(-29.74 -79.77)"/><rect class="cls-9" x="59.44" y="7.1" width="51.33" height="34.33"/><path class="cls-11" d="M106.17,96.73A8.42,8.42,0,0,0,117.44,109l5.39,5.39a.59.59,0,0,0,.82,0l1.52-1.52a.57.57,0,0,0,0-.82l-5.39-5.39a8.42,8.42,0,0,0-13.61-9.91ZM117,106.18a6,6,0,1,1,0-8.42A6,6,0,0,1,117,106.18Z" transform="translate(-29.74 -79.77)"/><path class="cls-13" d="M289.83,192.92c-.12,1.14-1.67,13-13.84,13-12.78,0-10.64-12.66-10.64-12.66l0-.08a12.93,12.93,0,0,1,4-.19v-6l14.51-8.12h.53v14A26.54,26.54,0,0,1,289.83,192.92Z" transform="translate(-29.74 -79.77)"/><path class="cls-14" d="M282.78,152.12a16.52,16.52,0,0,1,4.36,8.08c1.39,6.15.08,12.65-1.7,18.57a9.28,9.28,0,0,1-1.28,2.89,10.08,10.08,0,0,1-1.59,1.61q-3.87,3.36-7.73,6.75c-1.75,1.52-12.49,2.8-14.54,1.33-7.9-5.65-9.43-22-7.84-30.39C255.08,147.08,272.92,142.12,282.78,152.12Z" transform="translate(-29.74 -79.77)"/><path class="cls-15" d="M278.34,169.88c.11-1.33,1.48-2.8,2.86-1.93s1.09,3.27.5,4.58c-.46,1-2,2.14-3.07,1.19-.88-.8.49-1.74.54-2.47s-1.28-1.12-.74-1.83" transform="translate(-29.74 -79.77)"/><path class="cls-15" d="M278.59,176.06a4.09,4.09,0,0,0,4.5-2.67,15.25,15.25,0,0,0,.55-4.3,10.29,10.29,0,0,1,.36,4.74c-.38,2.92-1.4,5.71-3.69,5.74S278.59,176.06,278.59,176.06Z" transform="translate(-29.74 -79.77)"/><path class="cls-16" d="M276.83,174a.43.43,0,0,1-.16.05c-.9.12-1.25-.95-1.38-1.63a30.43,30.43,0,0,1-.32-4.77,3.6,3.6,0,0,0-.14-1.27c-.5-1.15-1.84-1.89-2.25-3.08-.47-1.38.87-2.75.34-4.26-.82-2.31-3.78-2.84-5.93-2.82a68.21,68.21,0,0,0-9.54,1.13c-3.35.52-7.64,1-10.6-1.11-3.56-2.55-5-9.22-2.39-12.87a8.65,8.65,0,0,1,6.61-3.1c2.55-.06,4.71,1.46,7.05,2.23,1.86.61,3.67-1.18,5.41-1.52,2.19-.44,3.12,1.95,5.06,2s3.73-1.41,5.56-1.75c3.65-.66,3.44,3,5.89,4.26,1.52.78,3.49.3,5,1.1,1.17.6,1.33,1.65,1.59,2.85a27.94,27.94,0,0,0,.57,3.21,7.16,7.16,0,0,0,1.63,2.13,8,8,0,0,1,1.35,2.58,16.18,16.18,0,0,1,.68,6.56,44.32,44.32,0,0,1-2.75,10.79c-.8,2.25-1.09,4.6-2.32,6.73-.33.57-1.8,2.24-2.34,1a1.79,1.79,0,0,1-.08-.86c.16-2.33,2.32-17.29-3.34-15.49a4,4,0,0,0-2.44,2.49,9.87,9.87,0,0,0-.5,4.14c0,.21,0,.41,0,.62A.7.7,0,0,1,276.83,174Z" transform="translate(-29.74 -79.77)"/><path class="cls-15" d="M269.34,191.6c6.45-1,10.7-6.13,10.7-6.13a11.76,11.76,0,0,1-11.08,9Z" transform="translate(-29.74 -79.77)"/><path class="cls-17" d="M281.55,308.57h6a1.63,1.63,0,0,1,1.63,1.63v88.53a0,0,0,0,1,0,0h-9.23a0,0,0,0,1,0,0V310.2A1.63,1.63,0,0,1,281.55,308.57Z" transform="translate(539.33 627.52) rotate(180)"/><path class="cls-18" d="M265.48,309.84h38.11a6.31,6.31,0,0,1,6.31,6.31v1.39a0,0,0,0,1,0,0H259.17a0,0,0,0,1,0,0v-1.39A6.31,6.31,0,0,1,265.48,309.84Z" transform="translate(539.33 547.6) rotate(180)"/><path class="cls-17" d="M281.55,388.23h6a1.63,1.63,0,0,1,1.63,1.63v20.51a0,0,0,0,1,0,0h-9.23a0,0,0,0,1,0,0V389.85A1.63,1.63,0,0,1,281.55,388.23Z" transform="translate(539.33 718.82) rotate(180)"/><path class="cls-17" d="M236.66,405a5.4,5.4,0,1,0,5.4-5.4A5.4,5.4,0,0,0,236.66,405Z" transform="translate(-29.74 -79.77)"/><path class="cls-17" d="M321.62,405a5.4,5.4,0,1,0,5.4-5.4A5.4,5.4,0,0,0,321.62,405Z" transform="translate(-29.74 -79.77)"/><rect class="cls-18" x="275.26" y="381.35" width="18.56" height="16.22" transform="translate(539.33 699.15) rotate(180)"/><path class="cls-9" d="M236.66,393.75h95.76a0,0,0,0,1,0,0v1.88a5.75,5.75,0,0,1-5.75,5.75H242.41a5.75,5.75,0,0,1-5.75-5.75v-1.88A0,0,0,0,1,236.66,393.75Z" transform="translate(539.33 715.37) rotate(180)"/><rect class="cls-18" x="251.59" y="239.58" width="3.2" height="60.55"/><path class="cls-9" d="M320.79,244.4a3.77,3.77,0,0,0-3.89,4c.63,11-1.7,37.8-11.93,46.94-12.52,11.19-48,9.67-48,9.67s-5.86,7.19,5.86,8.78,44.73.54,52.72-6.92c7.73-7.22,12.32-26.13,8.87-59a3.8,3.8,0,0,0-3.64-3.41Z" transform="translate(-29.74 -79.77)"/><polygon class="cls-19" points="224.58 300.13 228.8 309.75 215.87 315.42 211.64 305.77 224.58 300.13"/><path class="cls-20" d="M315.28,273c-.8,1.6-58.23,0-63.66.53,0,0-35.15,16.77-40.19,32.48a16.94,16.94,0,0,0-.5,6.17c1.41,22.11,26.59,75.06,26.59,75.06l3.86-1.7,12.94-5.64,1.84-.8s-20-59.51-16-62.71,49.26-11.18,65-15.43S315.28,273,315.28,273Z" transform="translate(-29.74 -79.77)"/><polygon class="cls-21" points="175.3 302.6 176.31 317.05 162.21 317.05 161.19 302.57 175.3 302.6"/><path class="cls-16" d="M251.34,273l-.51.23S192,281.52,182.4,298c-6.24,10.74,5.82,89.19,5.82,89.19l20.82.05s-3.11-65.35-2.07-69c1.16-4.15,3.16-5.65,4-6.08a16.94,16.94,0,0,1,.5-6.17c5-15.71,40.19-32.48,40.19-32.48A1,1,0,0,1,251.34,273Z" transform="translate(-29.74 -79.77)"/><path class="cls-10" d="M308.17,218.66l-3.94.54a193,193,0,0,1-3.31,21.29l-49.16,18.66-.67,3.56-.61,0c0,.74,0,1.46.05,2.13.11,4.1.38,7.06.81,8.24a1,1,0,0,0,.29.5c1.34,1.09,18.72-1,37.52,5.88,16.3,6,25.44,12.52,25.86,11.64C320.14,280.4,310.81,238.6,308.17,218.66Z" transform="translate(-29.74 -79.77)"/><path class="cls-22" d="M303,243c-1.31,6.3-4.69,18.82-11.34,20.5-8.68,2.21-25.45,2.09-41.17,1.25,0-.67,0-1.39-.05-2.13l.61,0,.67-3.56,49.16-18.66a193,193,0,0,0,3.31-21.29s0,.07,0,.18C304.34,221,305,233.74,303,243Z" transform="translate(-29.74 -79.77)"/><path class="cls-22" d="M253.77,203c-.88,1.59-2.15,18.69-2.83,35.66l-10.05-9.38C245.15,221,253.77,203,253.77,203Z" transform="translate(-29.74 -79.77)"/><path class="cls-15" d="M247.74,251c-8.48,1.47-16.28,2.74-16.28,2.74v.41c-9.45-7.54-23.81-28.9-23.81-28.9s4.3-5.16,5.37-6.52c.16-.21,23.58,15.91,24.78,15.77.3,0,1.5-2.14,3.1-5.27l10.05,9.38c-.16,4-.29,8.07-.37,11.88C249.63,250.68,248.68,250.84,247.74,251Z" transform="translate(-29.74 -79.77)"/><path class="cls-23" d="M231.46,253.75l-.21,7H205.69s2.54-10,9.46-10,9.58,3.66,9.58,3.66Z" transform="translate(-29.74 -79.77)"/><path class="cls-15" d="M212.82,218.58l.19.16c-1.07,1.36-5.37,6.52-5.37,6.52L205,223.37a6.63,6.63,0,0,1-6.36-.08c-3.56-1.93-1.36-6.55-1.17-7.09-.69.19-5,3.64-5.63,3.28s-1.17-1.59,3.61-6.3,11.24,1.34,11.44,1.34Z" transform="translate(-29.74 -79.77)"/><path class="cls-15" d="M199.17,222.49s-1,1.93.8,2.77a18.33,18.33,0,0,0,6.92,1.3c1.53-.15,2.75-2.29,2.75-2.29L205,219.92h-3.7Z" transform="translate(-29.74 -79.77)"/><path class="cls-24" d="M198.89,223.44c.28-.95,2.91-.44,4.54-.4,1.2,0,1.86-.29,2.23-1.21s-1.37-2.37-1.71-1.91.63,1.1.65,1.71-1.71.81-3.06.81a32.74,32.74,0,0,0-3.66.35Z" transform="translate(-29.74 -79.77)"/><path class="cls-25" d="M298.42,249.56l-25-8.87c-1.83,3.41-3.78,6-5.71,6.47-2.92.77-10,2.1-17.11,3.34-.94.18-1.89.34-2.83.51-8.48,1.47-16.28,2.74-16.28,2.74l0,.41v.27l-.19,6.32v1.6a176.19,176.19,0,0,1,19.22.31c15,1.07,34.35,1.71,40.76-1.31,3-1.42,5.4-6.09,7.29-11.84Z" transform="translate(-29.74 -79.77)"/><polygon class="cls-15" points="243.64 160.92 268.68 169.79 267.54 173.13 242.76 162.5 243.64 160.92"/><path class="cls-10" d="M273.39,240.69c-1.83,3.41-3.78,6-5.71,6.47-2.92.77-10,2.1-17.11,3.34.08-3.81.21-7.84.37-11.88.68-17,1.95-34.07,2.83-35.66,1.43-2.67,5.36-8.47,11.56-9.8l0,.08S263.21,205.9,276,205.9c12.17,0,13.72-11.84,13.84-13,6.26.7,15.86,3.84,17.19,16.43.27,2.49.65,5.68,1.15,9.31l-3.95.54s-1.6,17.74-5.7,30.31l-.1.05Z" transform="translate(-29.74 -79.77)"/><polygon class="cls-26" points="243.38 158.61 253.38 134.41 246.01 159.59 243.38 158.61"/><path class="cls-10" d="M289.83,192.92h-5.45s-7.76,8.51-12.74,8.51-2.3-8.46-2.3-8.46h-2.43a13.75,13.75,0,0,0-13.65,12.19c-.09.79-.18,1.54-.25,2.23-.53,5.15,20.33,8.89,20.33,8.89l10.75-.6L290.61,203l1.3-5.22Z" transform="translate(-29.74 -79.77)"/><path class="cls-12" d="M224.08,406.26c.49,2.61,2.29,4.46,4.9,4l34.7-6.47a1.62,1.62,0,0,0,1.29-1.89l-.57-3.08s-36.5,6.39-40.33,7.45Z" transform="translate(-29.74 -79.77)"/><path class="cls-16" d="M234.41,397.53l1.07-.94,2-1.82c.35-.31.7-.62,1-.92l1.76-1.57,1.07-1,1.42-1.27a.78.78,0,0,1,1,0c1.43,1.2,6,3.94,14.39-1.23a.82.82,0,0,1,1.14.3l5,9.7s-36.5,6.39-40.33,7.45C225.33,405.46,230,401.43,234.41,397.53Z" transform="translate(-29.74 -79.77)"/><path class="cls-12" d="M169.43,405.92c.07,2.65,1.55,4.76,4.2,4.7l35.29-.86a1.62,1.62,0,0,0,1.58-1.66l-.08-3.13s-37,.49-41,.93Z" transform="translate(-29.74 -79.77)"/><path class="cls-16" d="M181,398.94l1.2-.75,2.31-1.47,1.15-.74,2-1.28,1.21-.79,1.6-1a.78.78,0,0,1,1,.14c1.21,1.41,5.33,4.85,14.4,1.08a.79.79,0,0,1,1.07.48L210.42,405s-37,.49-41,.93C170.79,405.33,176,402.09,181,398.94Z" transform="translate(-29.74 -79.77)"/><polygon class="cls-27" points="114.58 182.57 95.74 132.31 149.39 132.31 168.24 182.57 114.58 182.57"/><polygon class="cls-28" points="171.56 182.57 168.24 182.57 149.39 132.31 152.4 132.44 169.84 177.94 171.56 182.57"/><polyline class="cls-29" points="98.62 177.14 98.9 177.14 166.18 177.14"/><path class="cls-28" d="M200.26,262.35h35.45l-.09-3.17H199.53" transform="translate(-29.74 -79.77)"/><rect class="cls-28" x="313.02" y="192.16" width="8.54" height="140.23"/><rect class="cls-27" x="266.69" y="192.16" width="8.54" height="140.23"/><rect class="cls-28" x="118.25" y="192.16" width="8.54" height="140.23"/><rect class="cls-27" x="71.92" y="192.16" width="8.54" height="140.23"/><rect class="cls-30" x="59.59" y="182.57" width="274.66" height="10.12" rx="4.15"/><polygon class="cls-28" points="104.7 137.59 105.61 140.04 116.3 140.04 115.39 137.59 104.7 137.59"/><polygon class="cls-24" points="211.14 149.46 210.38 150.95 221.19 162.12 221.19 158.84 211.14 149.46"/><rect class="cls-31" y="330.59" width="431.92" height="9.86"/><path class="cls-32" d="M393.18,337.21C391.47,345.54,392,359.72,381,362c-3,.6-5.83-1.45-7.55-3.81-2.26-3.08-2.8-9.61-2.76-13.34,0-3,1-6.26,1.36-9.24.35-3.22.64-6.46,1-9.68,1.35-11.6,7.41-21.33,17.67-27.13.8,3.81,2.61,7,4.2,10.7a37.92,37.92,0,0,1,1.86,5.17c.84,3.1-.18,6.23-.93,9.19C394.73,328.21,394.1,332.78,393.18,337.21Z" transform="translate(-29.74 -79.77)"/><path class="cls-33" d="M379.11,362.25c.07-.7.16-1.4.25-2.1a8.91,8.91,0,0,0,3.79-1.32,20.19,20.19,0,0,0,5-3.94c.08-.08-.06-.21-.14-.14a22.26,22.26,0,0,1-4.85,3.31,13.15,13.15,0,0,1-3.68,1.37c.12-.83.25-1.66.38-2.49a10.42,10.42,0,0,0,3.79-1.76,43.49,43.49,0,0,0,5.43-4.14,0,0,0,0,0,0,0c-2.69,1.95-5.68,4.73-9.09,5.34.18-1,.38-2.08.59-3.11a.75.75,0,0,0,0-.16c3.94-1,6.6-4.08,9.61-6.58.05,0,0-.12-.05-.08-3,2.3-5.76,4.93-9.43,6.05.32-1.47.65-2.94,1-4.41a20.92,20.92,0,0,0,8.9-6.31c0-.05,0-.11-.07-.07a27.17,27.17,0,0,1-8.68,5.75c.32-1.45.65-2.9,1-4.36a32.88,32.88,0,0,0,4.59-2.22,12.41,12.41,0,0,0,3.56-3.62.07.07,0,1,0-.11-.07c-2,2.86-5,3.76-7.91,5.26.29-1.36.55-2.72.79-4.09,3.23-1.78,6.75-3.43,8.58-6.85,0,0,0-.06-.05,0-1.94,3.14-5.34,4.49-8.42,6.2,0-.25.09-.49.12-.73.2-1.28.39-2.55.57-3.82a31,31,0,0,0,5.31-2.89,10.2,10.2,0,0,0,3.23-2.75.07.07,0,1,0-.12-.08c-1.73,2.49-5.53,3.92-8.34,5.17.18-1.29.36-2.57.55-3.86,3.11-1.88,6.78-2.93,8.69-6.32.06-.1-.09-.2-.15-.1-2,3.1-5.48,4.06-8.46,5.82.12-.79.23-1.59.35-2.39,3.37-1.23,7.28-4.05,9.05-7.09a.15.15,0,0,0-.25-.16,18.84,18.84,0,0,1-8.7,6.62c.2-1.29.41-2.57.64-3.86a.37.37,0,0,0,.05-.11,19.18,19.18,0,0,0,4.3-2.32,11.7,11.7,0,0,0,4.06-3.69c.1-.17-.18-.34-.28-.16-1.5,2.67-5,4.46-8,5.48.09-.47.17-.94.26-1.41.14-.7.28-1.4.43-2.09,1.2-.83,2.73-1.23,3.93-2.11a22.17,22.17,0,0,0,2.87-2.61c.09-.09-.05-.23-.14-.15a18.74,18.74,0,0,1-3.95,3c-.83.45-1.78.7-2.58,1.18.23-1.14.47-2.28.69-3.43h.09a.18.18,0,0,0,.19-.06c1.64-.41,2.89-1.82,4-3,0,0,0-.07,0,0a10.86,10.86,0,0,1-4,2.7h0l-.11,0c.17-.93.34-1.87.5-2.8a.21.21,0,0,0,.19-.24,16.77,16.77,0,0,0,2.4-2.05c.05-.05,0-.14-.09-.09a13.61,13.61,0,0,1-2.39,1.69,54.32,54.32,0,0,0,.65-5.84c0-.18-.26-.18-.28,0-.17,1.89-.44,3.76-.77,5.62a17.46,17.46,0,0,1-2.45-3.76.06.06,0,0,0-.12,0,10.86,10.86,0,0,0,1.2,2.32,14.16,14.16,0,0,0,1.26,2c-.18,1-.38,2-.58,3a5.12,5.12,0,0,1-4.86-4.93c0-.18-.29-.18-.28,0A6.28,6.28,0,0,0,384,311a5.82,5.82,0,0,0,3.45,1.68c-.24,1.15-.49,2.3-.74,3.45a27.5,27.5,0,0,1-2.82-2.1,39.11,39.11,0,0,1-3.56-3.84c-.12-.13-.33.06-.2.19a38.88,38.88,0,0,0,3.31,3.73,19.39,19.39,0,0,0,3.18,2.43l0,.18,0,0a.2.2,0,0,0,0,.26c-.24,1.1-.49,2.2-.72,3.3a1.18,1.18,0,0,1,0,.2c-2.56-1.17-6.39-3.21-6.73-6.18,0-.28-.45-.2-.39.09.76,3.36,4.46,4.85,7,6.69-.25,1.24-.48,2.49-.69,3.74a15.14,15.14,0,0,1-4.62-2.38c-1.26-1-3.05-2.21-3.61-3.77,0-.05-.1,0-.08,0,.53,1.55,2.13,2.61,3.3,3.67a12.33,12.33,0,0,0,4.9,3,.32.32,0,0,0,0,.17c-.13.79-.25,1.59-.38,2.38-3.11-.24-7.46-2.6-9.05-4.95,0,0,0,0,0,0a10.27,10.27,0,0,0,4.58,3.75,12.49,12.49,0,0,0,4.43,1.6l-.66,4.42c-1.35-.5-2.78-.74-4.11-1.28a10.11,10.11,0,0,1-4.67-4c-.08-.11-.25,0-.18.09,2.15,3.42,5.25,4.43,8.88,5.71-.18,1.21-.37,2.42-.57,3.62-3-.57-6.81-2.38-8.32-5-.11-.19-.41,0-.3.16a9.64,9.64,0,0,0,4.26,3.54,13,13,0,0,0,4.29,1.72.5.5,0,0,0,0,.12c-.3,1.74-.64,3.46-1,5.18-3.32-.83-5.46-3.29-7.88-5.59-.16-.16-.43.08-.26.25,2.46,2.41,4.62,4.95,8,5.85-.31,1.4-.63,2.79-1,4.19a15.41,15.41,0,0,1-7.45-5.1c-.13-.17-.36.05-.24.22a16.53,16.53,0,0,0,7.56,5.42c-.37,1.49-.75,3-1.13,4.47a11,11,0,0,1-6.93-4.56c0-.05-.13,0-.09.08,1.58,2.21,4,4.76,6.88,5l-.37,1.42c-.07.29-.15.58-.23.88a16.71,16.71,0,0,1-6-2.91c-.05,0-.11,0-.06.08a15.71,15.71,0,0,0,6,3.26c-.24.9-.5,1.82-.75,2.76a11.8,11.8,0,0,0-1.67-.71,12.09,12.09,0,0,1-2.74-1.59c-.09,0-.18.07-.1.13a13,13,0,0,0,2.37,1.6c.7.26,1.37.6,2.05.9-1,3.72-1.89,7.68-1.41,11.25.11.79,1.44,1,1.64.16A64.84,64.84,0,0,0,379.11,362.25Z" transform="translate(-29.74 -79.77)"/><path class="cls-34" d="M358.33,334.83c2,8.27,8.41,20.91-.63,27.6-2.43,1.8-5.89,1.14-8.45-.27-3.35-1.84-6.59-7.53-8.13-10.93-1.22-2.69-1.7-6.11-2.66-9-1-3.07-2.15-6.12-3.17-9.2C331.62,322,333,310.61,339.86,301c2.33,3.12,5.33,5.28,8.32,7.93a36.53,36.53,0,0,1,3.87,3.9c2.07,2.46,2.47,5.72,3,8.73C355.93,326,357.29,330.43,358.33,334.83Z" transform="translate(-29.74 -79.77)"/><path class="cls-33" d="M356.13,363.47c-.22-.67-.44-1.34-.65-2a9.06,9.06,0,0,0,2.88-2.8,20.41,20.41,0,0,0,2.85-5.67.1.1,0,0,0-.19-.07,22.71,22.71,0,0,1-3,5.05,14,14,0,0,1-2.76,2.8c-.25-.81-.48-1.62-.71-2.43a10.38,10.38,0,0,0,2.69-3.19,42.87,42.87,0,0,0,3.17-6s0,0,0,0c-1.62,2.9-3.16,6.69-6,8.68-.27-1-.54-2-.77-3.07a.94.94,0,0,1,0-.16c3.15-2.56,4.26-6.49,5.94-10,0-.06-.06-.11-.09-.06-1.71,3.35-3.13,6.91-6,9.47-.33-1.47-.65-2.94-1-4.41a21,21,0,0,0,5.4-9.48,0,0,0,1,0-.09,0,27.12,27.12,0,0,1-5.45,8.88c-.31-1.46-.63-2.91-1-4.37a32.94,32.94,0,0,0,3.22-3.94,12.47,12.47,0,0,0,1.71-4.79c0-.09-.13-.1-.14,0-.6,3.43-2.95,5.51-4.94,8.1-.32-1.35-.66-2.69-1-4,2.18-3,4.67-6,4.89-9.83,0,0-.05-.05-.06,0-.43,3.67-2.94,6.32-5,9.17-.06-.23-.12-.47-.19-.71-.36-1.24-.73-2.47-1.1-3.7a31.51,31.51,0,0,0,3.59-4.85,10.16,10.16,0,0,0,1.77-3.87.07.07,0,0,0-.14,0c-.52,3-3.36,5.89-5.38,8.21-.38-1.24-.76-2.49-1.13-3.73,2-3,4.91-5.51,5.21-9.4a.09.09,0,0,0-.18,0c-.49,3.66-3.25,6-5.21,8.85l-.69-2.31c2.53-2.54,4.89-6.75,5.21-10.25a.15.15,0,0,0-.3,0,18.78,18.78,0,0,1-5.09,9.67c-.36-1.25-.71-2.5-1.05-3.76a.28.28,0,0,0,0-.13,19.58,19.58,0,0,0,2.93-3.91,11.84,11.84,0,0,0,2.11-5.06c0-.21-.3-.23-.32,0-.23,3-2.69,6.17-4.92,8.33-.12-.46-.24-.92-.35-1.38l-.51-2.08c.74-1.26,2-2.27,2.68-3.57a22,22,0,0,0,1.5-3.58.1.1,0,0,0-.19-.07,18.77,18.77,0,0,1-2.3,4.42c-.56.75-1.31,1.38-1.84,2.16-.27-1.13-.54-2.27-.82-3.4l0,0h0a.2.2,0,0,0,.15-.14c1.31-1.06,1.85-2.86,2.34-4.41a0,0,0,0,0-.06,0,10.8,10.8,0,0,1-2.49,4.15h0l-.12,0c-.23-.92-.47-1.84-.72-2.75a.21.21,0,0,0,.07-.3,17.69,17.69,0,0,0,1.31-2.87c0-.07-.08-.12-.11,0a14.36,14.36,0,0,1-1.46,2.53,57.61,57.61,0,0,0-1.87-5.56c-.07-.17-.32-.06-.26.11.64,1.79,1.18,3.6,1.67,5.42a17.28,17.28,0,0,1-3.81-2.37c0-.05-.14,0-.09.08a11.09,11.09,0,0,0,2.06,1.61,14.42,14.42,0,0,0,2,1.31c.26,1,.5,2,.74,3a5.51,5.51,0,0,1-3.22.2,5.45,5.45,0,0,1-3.27-2.62c-.08-.16-.34,0-.25.12a6.25,6.25,0,0,0,3,2.64,5.88,5.88,0,0,0,3.84.07c.27,1.14.53,2.29.78,3.43a26.41,26.41,0,0,1-3.43-.71,37.34,37.34,0,0,1-4.85-2c-.17-.06-.28.2-.11.26a41.4,41.4,0,0,0,4.58,2,19.07,19.07,0,0,0,3.91.86l0,.18a.08.08,0,0,0,0,0,.18.18,0,0,0,.08.25c.25,1.09.49,2.19.75,3.29a1.46,1.46,0,0,0,.05.2c-2.82,0-7.15-.21-8.71-2.76a.2.2,0,1,0-.32.24c2.11,2.73,6.09,2.52,9.17,3.11.3,1.23.61,2.46.95,3.69a15.36,15.36,0,0,1-5.19-.21c-1.57-.38-3.7-.72-4.87-1.89,0,0-.09,0-.06.06,1.14,1.18,3,1.46,4.54,1.93a12.29,12.29,0,0,0,5.71.66.26.26,0,0,0,.07.15l.66,2.33c-2.92,1.09-7.86.79-10.3-.68,0,0,0,0,0,0A10.27,10.27,0,0,0,342,331a12.8,12.8,0,0,0,4.7-.42c.42,1.43.85,2.85,1.27,4.28-1.44.11-2.84.5-4.27.58a10.17,10.17,0,0,1-5.92-1.64c-.11-.06-.23.09-.12.16,3.4,2.2,6.63,1.8,10.46,1.43.35,1.18.69,2.35,1,3.53-2.94.73-7.19.71-9.64-1a.17.17,0,0,0-.2.27,9.61,9.61,0,0,0,5.35,1.41,12.81,12.81,0,0,0,4.61-.25.56.56,0,0,0,0,.12q.69,2.55,1.27,5.12c-3.36.65-6.34-.68-9.5-1.74-.22-.08-.36.25-.14.33,3.25,1.16,6.28,2.55,9.75,1.92.32,1.39.61,2.8.89,4.2a15.3,15.3,0,0,1-8.91-1.48c-.18-.09-.3.21-.12.3a16.49,16.49,0,0,0,9.14,1.73q.45,2.26.87,4.53a11,11,0,0,1-8.21-1.21c-.06,0-.11.08-.05.11,2.37,1.33,5.62,2.63,8.36,1.66l.27,1.44c.05.3.1.59.16.89a16.44,16.44,0,0,1-6.7-.09.05.05,0,0,0,0,.1,15.75,15.75,0,0,0,6.79.44c.16.91.31,1.86.48,2.81a12.26,12.26,0,0,0-1.81.06,11.52,11.52,0,0,1-3.15-.28c-.1,0-.14.14,0,.16a12.37,12.37,0,0,0,2.82.45c.75-.06,1.5,0,2.24,0,.66,3.79,1.53,7.75,3.47,10.78.44.68,1.73.31,1.56-.55A63.19,63.19,0,0,0,356.13,363.47Z" transform="translate(-29.74 -79.77)"/><path class="cls-35" d="M377.42,328.42c.46,10.51,5.38,27.37-7.15,33.4-3.38,1.63-7.44,0-10.22-2.28-3.64-3-6.27-10.68-7.35-15.17-.86-3.56-.65-7.82-1.17-11.5-.55-4-1.19-7.93-1.72-11.91-1.89-14.34,2.44-27.85,13-37.91,2.1,4.33,5.25,7.65,8.28,11.55a46,46,0,0,1,3.79,5.65c1.95,3.46,1.68,7.52,1.68,11.31C376.54,317.15,377.17,322.82,377.42,328.42Z" transform="translate(-29.74 -79.77)"/><path class="cls-33" d="M368.12,362.72c-.12-.86-.23-1.72-.33-2.59a11,11,0,0,0,4.15-2.74,25,25,0,0,0,4.77-6.23c.07-.12-.13-.24-.21-.13a27.77,27.77,0,0,1-4.81,5.45,16.8,16.8,0,0,1-4,2.76c-.11-1-.21-2.07-.3-3.11,1.6-.62,2.83-2.08,4-3.25a55,55,0,0,0,5.26-6.62,0,0,0,1,0,0,0c-2.64,3.16-5.39,7.4-9.29,9.16-.09-1.3-.18-2.6-.23-3.9,0-.07,0-.14,0-.21,4.42-2.39,6.68-6.9,9.54-10.81.05-.06,0-.15-.09-.08-2.86,3.66-5.41,7.67-9.47,10.12-.07-1.86-.12-3.73-.16-5.59a26.06,26.06,0,0,0,8.76-10.27c0-.07-.07-.13-.11-.06-2.28,4-5.22,6.71-8.67,9.53-.05-1.84-.1-3.68-.17-5.53,1.62-1.37,3.43-2.42,4.83-4a15.41,15.41,0,0,0,3.19-5.42.09.09,0,0,0-.17-.05c-1.52,4-4.86,6-7.88,8.71-.08-1.72-.17-3.43-.3-5.15,3.34-3.12,7.06-6.16,8.22-10.82a0,0,0,0,0-.07,0c-1.38,4.35-5,7-8.22,10,0-.31-.05-.61-.08-.92-.15-1.58-.31-3.17-.48-4.75a37.69,37.69,0,0,0,5.49-5.07,12.49,12.49,0,0,0,3.05-4.28.09.09,0,0,0-.16-.07c-1.33,3.51-5.46,6.39-8.45,8.74l-.51-4.8c3.16-3.2,7.25-5.56,8.52-10.22a.12.12,0,0,0-.22-.07c-1.44,4.32-5.34,6.53-8.38,9.55q-.17-1.49-.3-3c3.66-2.51,7.5-7.07,8.7-11.26a.19.19,0,0,0-.35-.12,23.3,23.3,0,0,1-8.43,10.59c-.15-1.61-.29-3.21-.4-4.83a.61.61,0,0,0,0-.15,23.76,23.76,0,0,0,4.47-4.08,14.6,14.6,0,0,0,3.74-5.66.2.2,0,0,0-.38-.1c-1,3.65-4.7,6.87-7.92,9,0-.59-.08-1.17-.11-1.76l-.12-2.65c1.19-1.36,2.9-2.3,4.08-3.72a27.45,27.45,0,0,0,2.65-4c.08-.13-.13-.26-.21-.13a23.6,23.6,0,0,1-3.83,4.84c-.86.79-1.91,1.38-2.73,2.2q-.09-2.16-.21-4.32l.05,0h.05a.24.24,0,0,0,.22-.13c1.84-1,2.91-3.06,3.87-4.83a0,0,0,0,0-.07,0,13.53,13.53,0,0,1-4,4.46h0l-.14,0c-.07-1.17-.15-2.35-.25-3.51a.27.27,0,0,0,.16-.35,20.57,20.57,0,0,0,2.25-3.18c.05-.09-.07-.17-.12-.09a16.93,16.93,0,0,1-2.36,2.75,70.36,70.36,0,0,0-1-7.2c0-.22-.37-.14-.34.08.37,2.32.61,4.65.78,7a21.52,21.52,0,0,1-4.08-3.76c-.06-.08-.18,0-.13.07a13.37,13.37,0,0,0,2.14,2.43,17.45,17.45,0,0,0,2.14,2.07c.08,1.25.15,2.5.2,3.76a6.35,6.35,0,0,1-7.32-4.45c-.07-.21-.41-.12-.34.09a7.76,7.76,0,0,0,3,3.9,7.23,7.23,0,0,0,4.65,1c.06,1.45.11,2.9.16,4.35a33.58,33.58,0,0,1-4-1.65c-2.08-.95-3.53-2.36-5.43-3.53a.17.17,0,0,0-.19.29c1.79,1.14,3.16,2.53,5.1,3.47a23.63,23.63,0,0,0,4.56,1.95v.23l0,.05a.23.23,0,0,0,0,.31c0,1.39.09,2.79.15,4.18,0,.08,0,.17,0,.26-3.43-.63-8.64-1.92-9.95-5.38a.25.25,0,1,0-.44.22c1.93,3.81,6.82,4.47,10.43,5.9.07,1.57.18,3.14.3,4.71a18.57,18.57,0,0,1-6.26-1.46c-1.82-.82-4.33-1.73-5.49-3.43,0-.05-.11,0-.07.06,1.1,1.7,3.34,2.49,5.06,3.4a15.22,15.22,0,0,0,6.79,2.13.46.46,0,0,0,.05.2c.08,1,.17,2,.27,3-3.81.66-9.75-.86-12.37-3.2,0,0,0,0,0,0a12.63,12.63,0,0,0,6.62,3.12,15.68,15.68,0,0,0,5.81.58q.27,2.75.55,5.5c-1.78-.2-3.56,0-5.33-.29a12.64,12.64,0,0,1-6.81-3.36c-.12-.1-.3.06-.18.17,3.62,3.46,7.64,3.72,12.38,4.16.15,1.5.29,3,.42,4.52-3.74.21-8.9-.8-11.48-3.44-.19-.19-.51.09-.32.29a12,12,0,0,0,6.18,3c1.63.36,3.92,1.06,5.67.76,0,0,0,.1,0,.15.18,2.17.29,4.34.36,6.52-4.23,0-7.55-2.29-11.14-4.32-.25-.14-.49.23-.24.37,3.68,2.16,7,4.55,11.41,4.59,0,1.77.09,3.54.1,5.32a19,19,0,0,1-10.49-3.86c-.2-.16-.41.18-.21.33a20.42,20.42,0,0,0,10.71,4.22c0,1.9,0,3.81,0,5.71-3.62.35-6.85-1.15-9.69-3.37-.07-.05-.16.06-.1.12,2.58,2.17,6.24,4.5,9.79,3.95,0,.6,0,1.21,0,1.82,0,.37,0,.74,0,1.12a20.48,20.48,0,0,1-8.12-1.66c-.07,0-.12.07-.05.11a19.45,19.45,0,0,0,8.16,2.11c0,1.15-.06,2.33-.08,3.53a15.67,15.67,0,0,0-2.21-.35,14.62,14.62,0,0,1-3.77-1.07c-.12,0-.2.14-.08.18a15.45,15.45,0,0,0,3.33,1.21c.92.1,1.82.31,2.73.46-.07,4.77.07,9.78,1.72,13.92.37.92,2,.76,2-.31C369.44,369.29,368.56,366,368.12,362.72Z" transform="translate(-29.74 -79.77)"/><polygon class="cls-36" points="354.59 286.88 354.13 295.43 353.4 308.73 352.21 330.59 322.62 330.59 321.43 308.73 320.7 295.43 320.24 286.88 354.59 286.88"/><polygon class="cls-31" points="354.13 295.43 354.03 297.14 353.94 298.92 353.4 308.73 321.43 308.73 320.89 298.92 320.8 297.14 320.7 295.43 354.13 295.43"/><polygon class="cls-36" points="354.03 297.14 353.94 298.92 320.89 298.92 320.8 297.14 354.03 297.14"/></g></g></svg>