<svg id="OBJECTS" xmlns="http://www.w3.org/2000/svg" viewBox="0 0 746.17 456.1"><defs><style>.cls-1{fill:#b8f3b8;}.cls-2{fill:#81e8a7;}.cls-20,.cls-21,.cls-22,.cls-24,.cls-25,.cls-3,.cls-30,.cls-34,.cls-35{fill:none;}.cls-3{stroke:#81e8a7;}.cls-20,.cls-22,.cls-24,.cls-3,.cls-30,.cls-34,.cls-35{stroke-miterlimit:10;}.cls-3,.cls-30,.cls-35{stroke-width:1.09px;}.cls-4{fill:#34fa8d;}.cls-5{fill:#224720;}.cls-6{fill:#5ff075;}.cls-7{fill:#46b08f;}.cls-37,.cls-41,.cls-42,.cls-8{fill:#fff;}.cls-9{fill:#888136;}.cls-10{fill:#598232;}.cls-11{fill:#76a84d;}.cls-12{fill:#4b6f2b;}.cls-13{fill:#4a4a4a;}.cls-14{fill:#f3dd89;}.cls-15{fill:#aae8b2;}.cls-16{fill:#22a2b0;}.cls-17{fill:#887548;}.cls-18{fill:#316a80;}.cls-19{fill:#a3e1ca;}.cls-20{stroke:#45cf88;}.cls-20,.cls-24,.cls-25,.cls-34{stroke-width:1.03px;}.cls-21,.cls-25{stroke:#316a80;stroke-linecap:round;stroke-linejoin:round;}.cls-22{stroke:#fff;stroke-width:0.51px;}.cls-23{fill:#f3df89;}.cls-24{stroke:#a3e1ca;}.cls-26{fill:#787878;}.cls-27{fill:#393939;}.cls-28{fill:#232323;}.cls-29{fill:#429795;}.cls-30{stroke:#224720;}.cls-31{fill:#7e9757;}.cls-32{fill:#20392d;}.cls-33{fill:#56f3ba;}.cls-34{stroke:#56f3ba;}.cls-35{stroke:#76a84d;}.cls-36,.cls-40{opacity:0.2;}.cls-37{font-size:39.11px;letter-spacing:0.05em;}.cls-37,.cls-41,.cls-42{font-family:roboto, sans-serif;font-weight:400;}.cls-38{fill:#6c6c6a;}.cls-39{fill:#565655;}.cls-41{font-size:37.73px;letter-spacing:0.05em;}.cls-42{font-size:34.24px;letter-spacing:0.05em;}</style></defs><path class="cls-1" d="M45.63,470.68H721.42S746,444.94,739.88,408s-45.55-50.47-67.7-80-50.47-89.65-139.1-107S393.82,192,342.2,146.15,225,67.9,135.13,115.11C24.29,173.31,2.55,366.87,45.63,470.68Z" transform="translate(-1.91 -29.39)"/><path class="cls-2" d="M736.83,443.8c-22.14-15.13-54.54-21.9-93.55-21.1-36,.74-55.16-68-128.81-87.91S342.6,370.49,273.6,290.23C210.22,216.51,139,201.58,43.84,234.07,17.25,312.63,19.62,408,45.63,470.68H721.42A79.24,79.24,0,0,0,736.83,443.8Z" transform="translate(-1.91 -29.39)"/><line class="cls-3" x1="23.06" y1="441.29" x2="746.17" y2="441.29"/><circle class="cls-4" cx="461.53" cy="160.34" r="149.64"/><rect class="cls-5" x="476.55" width="154.85" height="109.82" rx="6.19"/><rect class="cls-6" x="494.26" y="9.57" width="35.02" height="4.25" rx="1.67"/><rect class="cls-6" x="503.37" y="22.2" width="35.02" height="4.25" rx="1.67"/><rect class="cls-7" x="543.02" y="22.2" width="74.6" height="4.25" rx="1.67"/><rect class="cls-6" x="503.37" y="31.18" width="52.61" height="4.25" rx="1.67"/><rect class="cls-4" x="565.01" y="31.18" width="52.61" height="4.25" rx="1.67"/><rect class="cls-6" x="503.37" y="40.16" width="67.64" height="4.25" rx="1.67"/><path class="cls-4" d="M617.41,73.81H588.47a2.14,2.14,0,0,1-2.13-2.13h0a2.14,2.14,0,0,1,2.13-2.13h28.94a2.13,2.13,0,0,1,2.12,2.13h0A2.13,2.13,0,0,1,617.41,73.81Z" transform="translate(-1.91 -29.39)"/><path class="cls-8" d="M500.43,53.71a2.13,2.13,0,1,1-2.13-2.12A2.13,2.13,0,0,1,500.43,53.71Z" transform="translate(-1.91 -29.39)"/><path class="cls-8" d="M500.43,62.7a2.13,2.13,0,1,1-2.13-2.13A2.13,2.13,0,0,1,500.43,62.7Z" transform="translate(-1.91 -29.39)"/><path class="cls-8" d="M500.43,71.68a2.13,2.13,0,1,1-2.13-2.13A2.14,2.14,0,0,1,500.43,71.68Z" transform="translate(-1.91 -29.39)"/><path class="cls-9" d="M554.53,81.17h-57a1.38,1.38,0,0,1-1.37-1.37h0a1.37,1.37,0,0,1,1.37-1.37h57a1.36,1.36,0,0,1,1.36,1.37h0A1.37,1.37,0,0,1,554.53,81.17Z" transform="translate(-1.91 -29.39)"/><rect class="cls-6" x="503.37" y="67.54" width="35.02" height="4.25" rx="1.67"/><path class="cls-7" d="M570,101.18h-23a2.12,2.12,0,0,1-2.12-2.13h0a2.12,2.12,0,0,1,2.12-2.12h23a2.12,2.12,0,0,1,2.12,2.12h0A2.12,2.12,0,0,1,570,101.18Z" transform="translate(-1.91 -29.39)"/><rect class="cls-6" x="503.37" y="76.52" width="36.02" height="4.25" rx="1.67"/><rect class="cls-4" x="543.02" y="76.52" width="74.6" height="4.25" rx="1.67"/><rect class="cls-6" x="503.37" y="85.5" width="67.64" height="4.25" rx="1.67"/><path class="cls-4" d="M617.41,119.15H580.7a2.13,2.13,0,0,1-2.13-2.13h0a2.12,2.12,0,0,1,2.13-2.12h36.71a2.12,2.12,0,0,1,2.12,2.12h0A2.13,2.13,0,0,1,617.41,119.15Z" transform="translate(-1.91 -29.39)"/><path class="cls-8" d="M500.43,99.05a2.13,2.13,0,1,1-2.13-2.12A2.13,2.13,0,0,1,500.43,99.05Z" transform="translate(-1.91 -29.39)"/><path class="cls-8" d="M500.43,108a2.13,2.13,0,1,1-2.13-2.13A2.13,2.13,0,0,1,500.43,108Z" transform="translate(-1.91 -29.39)"/><path class="cls-8" d="M500.43,117a2.13,2.13,0,1,1-2.13-2.12A2.14,2.14,0,0,1,500.43,117Z" transform="translate(-1.91 -29.39)"/><path class="cls-9" d="M554.53,126.51h-57a1.37,1.37,0,0,1-1.37-1.37h0a1.38,1.38,0,0,1,1.37-1.37h57a1.37,1.37,0,0,1,1.36,1.37h0A1.36,1.36,0,0,1,554.53,126.51Z" transform="translate(-1.91 -29.39)"/><polygon class="cls-10" points="508.63 343.33 500.8 343.33 499.58 278.88 509.84 278.88 508.63 343.33"/><rect class="cls-11" x="470.45" y="341.24" width="68.53" height="10.15"/><polygon class="cls-10" points="525.53 283.35 544.37 441.91 552.42 441.91 538.2 283.35 525.53 283.35"/><polygon class="cls-10" points="483.9 283.35 465.06 441.91 457 441.91 471.22 283.35 483.9 283.35"/><polygon class="cls-12" points="509.84 278.88 499.58 278.88 499.93 297.14 509.53 295.7 509.84 278.88"/><polygon class="cls-12" points="481.94 299.84 483.89 283.35 471.22 283.35 469.58 301.69 481.94 299.84"/><polygon class="cls-12" points="538.2 283.35 525.53 283.35 526.69 293.13 538.92 291.3 538.2 283.35"/><rect class="cls-13" x="461.25" y="267.84" width="86.92" height="15.52" rx="3.94"/><path class="cls-14" d="M443.18,446.24S443.05,458,444.9,463a30,30,0,0,1,1.64,10.19s-35.26,1.16-36.68.36c-.91-.51,8.21-4.11,14.9-6.64a8.75,8.75,0,0,0,5.51-9.68l-1.92-11Z" transform="translate(-1.91 -29.39)"/><path class="cls-14" d="M372.08,446.24s-2.95,12.47-3,17a18.8,18.8,0,0,1,.52,10s-35.27,1.16-36.69.36c-1.05-.59,11.39-5.35,17.88-7.76a7.52,7.52,0,0,0,4.7-5.36l1.76-14.22Z" transform="translate(-1.91 -29.39)"/><path class="cls-15" d="M438.47,88.41c-9.17-.39-13,6.48-11.22,12.16,2.4,7.7.62,8.22-.35,13.45s-.22,11.45.35,15.08c1.2,7.66-4.35,10.81-4.35,10.81s27.6-3.42,40.54-7.3,27.24-7.26,27.24-7.26-2.12-10.44-6.95-13.34c-6.6-4-1.86-12.91-8.2-16.73C466.83,90,459.23,72.81,438.47,88.41Z" transform="translate(-1.91 -29.39)"/><path class="cls-16" d="M442.74,148.36a28.49,28.49,0,0,0-17.43,20.15c-2.44,10-7.95,40.62-7.95,40.62h26s6.22-25.4,8.18-36.18S448.32,149.22,442.74,148.36Z" transform="translate(-1.91 -29.39)"/><path class="cls-14" d="M441.94,212.72l-4.42,20.57a14.17,14.17,0,0,1-13.85,11.19H347.15s4.64-6.73,10.88-6.73,56.81-11.27,56.81-11.27l2.36-13.76Z" transform="translate(-1.91 -29.39)"/><path class="cls-17" d="M417.2,212.72l-2.36,13.76s-6,1.34-14.17,3.1c4.39,2.58,11.31,7.58,14.61,14.9h8.39a14.17,14.17,0,0,0,13.85-11.19l4.42-20.57Z" transform="translate(-1.91 -29.39)"/><path class="cls-18" d="M442.74,148.36a28.49,28.49,0,0,0-17.43,20.15c-1,4.22-2.62,12.17-4.1,19.92,2,3.13,4.37,6,6.83,7.35,4.83,2.74,7.42,9.25,8.63,13.35h6.7s6.22-25.4,8.18-36.18S448.32,149.22,442.74,148.36Z" transform="translate(-1.91 -29.39)"/><path class="cls-8" d="M442.26,217.49h-27.2a2.5,2.5,0,0,1-2.46-3l1-5.27a2.52,2.52,0,0,1,2.46-2h27.21a2.5,2.5,0,0,1,2.45,3l-1,5.27A2.49,2.49,0,0,1,442.26,217.49Z" transform="translate(-1.91 -29.39)"/><path class="cls-8" d="M475.55,253.31s-79,2.06-94.64,20.79c-20.47,24.47-33.2,174.81-33.2,174.81h33.2s4-12.5,5.62-34.42c.64-8.84,7.39-23.31,8.21-41.66s14.91-48,15.86-64.56c0,0,122.91-5,126.91-21s-3.8-36.69-3.8-36.69Z" transform="translate(-1.91 -29.39)"/><path class="cls-19" d="M380.91,344.24c6.6,8.4,11,19.24,13.87,28,1.07-18.39,14.88-47.6,15.82-64,0,0,122.91-5,126.91-21s-3.8-36.69-3.8-36.69l-58.16,2.7s-79,2.06-94.64,20.79c-6.26,7.48-11.79,26.71-16.45,49.81C369,330.31,374.8,336.48,380.91,344.24Z" transform="translate(-1.91 -29.39)"/><path class="cls-20" d="M435.36,281.32s-33.37-5.56-40.62,15.91-9.5,73.94-13.83,90.88-7.32,60.8-7.32,60.8" transform="translate(-1.91 -29.39)"/><path class="cls-16" d="M534.32,223h0c-5.86-32.43-14.35-77.24-17-80.09-3-3.23-22.11-5-32.59-7l-6.85-6.81-24.92,8.36-.78,7.56-9.42,3.34s-1.23,14.65-1.94,23.78c-1.51,19.32,6.27,30.65,15.27,46.83,5.55,10,7.59,21.9,8.33,29.55a8.69,8.69,0,0,0,8.66,7.83h73.26C554.63,256.35,537.27,239.3,534.32,223Z" transform="translate(-1.91 -29.39)"/><path class="cls-18" d="M534.32,223c-3.9-21.59-9-48.64-12.7-65.17l-17.78-6.4s-11.24,23.17-9.26,37.73c1,7.68-5.36,11.07-7,22.65-1.42,10.31,3.26,30.72,26,44.56h32.69c8.31,0-9.05-17.05-12-33.36Z" transform="translate(-1.91 -29.39)"/><path class="cls-14" d="M457.18,137.42l1.24-.12,7.78,9.86h0l-.67-8.65a67.19,67.19,0,0,0,11.6-5.76l-10.38-18.38s3-7.58-.74-9.35-5.69,4-5.69,4-13.9.37-20.67-11.11c-1.42,1-2.24,3.86-2.08,5.58.8,8.5,2.13,11.86,1.87,15.53.71,6.54,5.91,13.25,10.17,13.25s4.92-1.31,4.92-1.31Z" transform="translate(-1.91 -29.39)"/><path class="cls-21" d="M440.6,111.55c.49,3.39-.7,6.35-2.65,6.61s-3.94-2.29-4.43-5.69.7-6.35,2.65-6.61S440.11,108.15,440.6,111.55Z" transform="translate(-1.91 -29.39)"/><path class="cls-21" d="M450,110.33c.49,3.39-.7,6.35-2.65,6.61s-3.94-2.3-4.43-5.69.69-6.35,2.65-6.61S449.47,106.93,450,110.33Z" transform="translate(-1.91 -29.39)"/><line class="cls-21" x1="438.48" y1="81.1" x2="440.87" y2="80.79"/><line class="cls-21" x1="447.69" y1="79.39" x2="459.83" y2="77.72"/><path class="cls-17" d="M461.75,128.92c1.21-3.81,2.78-9.58,1.44-9.58s-2.39,3.43-4.07,6.27a26.26,26.26,0,0,1-4.59,5.37l2.38,5.78C458.43,134.43,460.89,131.61,461.75,128.92Z" transform="translate(-1.91 -29.39)"/><path class="cls-22" d="M466.83,151.41A63.51,63.51,0,0,1,468,169.88c-.95,9.46,1.66,23.56,3.79,29.77s4.77,20.17,6.05,29.64,3.18,20.34,7.44,26.52" transform="translate(-1.91 -29.39)"/><path class="cls-16" d="M509.79,140.08c13.78,2.93,23.57,13.45,25.7,30.73S541,212.72,541,212.72H509.79s-6-28.05-8.16-42.13S499.66,137.93,509.79,140.08Z" transform="translate(-1.91 -29.39)"/><path class="cls-23" d="M539.28,209.91l2.58,18.7a14.06,14.06,0,0,1-13.93,16H430.79s4.37-7.24,15.58-7.55a44.72,44.72,0,0,1,9.69.69l56.25-13.25-2.14-14.58Z" transform="translate(-1.91 -29.39)"/><path class="cls-8" d="M544.35,253.31s7.75,8.6,8.95,24.39c.55,7.28-1.6,17.8-14.19,19.53-11.59,1.59-96.56,11-96.56,11s3.3,36.51,2.4,54.8,3,28.79.9,39,2.09,39.35.89,48.47H415.56S403,339.19,399.36,312.74s11.1-38.74,29.39-42.93,72.75-14,72.75-14Z" transform="translate(-1.91 -29.39)"/><path class="cls-24" d="M533.71,250.61s8.2,25.52-2.2,30.71-93.56,8.24-96.76,15.91,3.2,63.8,0,72.31,1.2,23.72,0,31.71,3.39,49.27,3.39,49.27" transform="translate(-1.91 -29.39)"/><path class="cls-25" d="M467.34,139.79s1.5,1.87,3.3,4.17,3.09,4.4,3.09,4.4,7.7-6.8,10-11.1" transform="translate(-1.91 -29.39)"/><path class="cls-25" d="M458.34,139.91v9.24a25.22,25.22,0,0,1-4.9-3.59" transform="translate(-1.91 -29.39)"/><path class="cls-8" d="M461.56,178.22c.23,1.23-.17,2.33-.9,2.46s-1.49-.74-1.72-2,.17-2.33.89-2.46S461.33,177,461.56,178.22Z" transform="translate(-1.91 -29.39)"/><path class="cls-8" d="M465,196.67c.23,1.23-.17,2.33-.89,2.47s-1.5-.75-1.73-2,.17-2.33.9-2.46S464.78,195.45,465,196.67Z" transform="translate(-1.91 -29.39)"/><path class="cls-8" d="M468.47,215.12c.23,1.23-.17,2.33-.89,2.47s-1.5-.75-1.73-2,.17-2.32.9-2.46S468.24,213.9,468.47,215.12Z" transform="translate(-1.91 -29.39)"/><path class="cls-8" d="M541.38,217.49h-30.5a2.7,2.7,0,0,1-2.67-2.34l-.78-6a2.68,2.68,0,0,1,2.66-3H540.6a2.68,2.68,0,0,1,2.66,2.34l.79,6A2.69,2.69,0,0,1,541.38,217.49Z" transform="translate(-1.91 -29.39)"/><path class="cls-18" d="M446.54,473.22a30.29,30.29,0,0,0-1.34-9.32,30.6,30.6,0,0,1-5.58,1.88c-3.18.69-8.25-1.55-10.41-2.62a8.69,8.69,0,0,1-4.45,3.78c-6.69,2.53-15.81,6.13-14.9,6.64C411.28,474.38,446.54,473.22,446.54,473.22Z" transform="translate(-1.91 -29.39)"/><path class="cls-18" d="M353.58,464a7.46,7.46,0,0,1-2.79,1.85c-6.49,2.41-18.93,7.17-17.88,7.76,1.42.8,36.69-.36,36.69-.36a18.88,18.88,0,0,0,0-8.09C361.6,467.85,356.16,465.62,353.58,464Z" transform="translate(-1.91 -29.39)"/><rect class="cls-26" x="192.58" y="294.1" width="114.48" height="148.01" rx="6.28"/><rect class="cls-13" x="174.97" y="294.1" width="49.78" height="148.01" rx="6.28"/><path class="cls-8" d="M287.36,372.83H248.28a8.31,8.31,0,0,1-8.31-8.31h0a8.31,8.31,0,0,1,8.31-8.31h39.08a8.31,8.31,0,0,1,8.31,8.31h0A8.31,8.31,0,0,1,287.36,372.83Z" transform="translate(-1.91 -29.39)"/><path class="cls-8" d="M287.36,408.83H248.28a8.31,8.31,0,0,1-8.31-8.31h0a8.31,8.31,0,0,1,8.31-8.31h39.08a8.31,8.31,0,0,1,8.31,8.31h0A8.31,8.31,0,0,1,287.36,408.83Z" transform="translate(-1.91 -29.39)"/><path class="cls-8" d="M287.36,444.84H248.28a8.31,8.31,0,0,1-8.31-8.31h0a8.31,8.31,0,0,1,8.31-8.31h39.08a8.31,8.31,0,0,1,8.31,8.31h0A8.31,8.31,0,0,1,287.36,444.84Z" transform="translate(-1.91 -29.39)"/><rect class="cls-27" x="174.97" y="334" width="49.78" height="2.26"/><rect class="cls-27" x="174.97" y="370" width="49.78" height="2.26"/><rect class="cls-27" x="174.97" y="406.01" width="49.78" height="2.26"/><rect class="cls-28" x="190.62" y="327.81" width="6.42" height="2.54"/><rect class="cls-28" x="201.07" y="327.81" width="6.42" height="2.54"/><rect class="cls-28" x="211.53" y="327.81" width="6.42" height="2.54"/><path class="cls-28" d="M213.67,393.86H189.88A2.88,2.88,0,0,1,187,391h0a2.88,2.88,0,0,1,2.88-2.87h23.79a2.88,2.88,0,0,1,2.88,2.87h0A2.88,2.88,0,0,1,213.67,393.86Z" transform="translate(-1.91 -29.39)"/><path class="cls-28" d="M213.67,428H189.88A2.88,2.88,0,0,1,187,425.1h0a2.87,2.87,0,0,1,2.88-2.87h23.79a2.87,2.87,0,0,1,2.88,2.87h0A2.88,2.88,0,0,1,213.67,428Z" transform="translate(-1.91 -29.39)"/><path class="cls-6" d="M679.3,352.59a51.55,51.55,0,0,0,0-16.69H665a37.11,37.11,0,0,0-4.79-11.56l10.11-10.12a51.38,51.38,0,0,0-11.8-11.79L648.4,312.54a37.11,37.11,0,0,0-11.56-4.79V293.44a51.55,51.55,0,0,0-16.69,0v14.31a37.11,37.11,0,0,0-11.56,4.79l-10.11-10.11a51.38,51.38,0,0,0-11.8,11.79l10.11,10.12A37.11,37.11,0,0,0,592,335.9H577.69a51.55,51.55,0,0,0,0,16.69H592a37.2,37.2,0,0,0,4.79,11.56l-10.11,10.11a51.42,51.42,0,0,0,11.8,11.8L608.59,376a37.35,37.35,0,0,0,11.56,4.79v14.31a51.55,51.55,0,0,0,16.69,0V380.74A37.35,37.35,0,0,0,648.4,376l10.11,10.11a51.42,51.42,0,0,0,11.8-11.8L660.2,364.15A37.2,37.2,0,0,0,665,352.59Zm-50.8,10.08a18.43,18.43,0,1,1,18.42-18.43A18.43,18.43,0,0,1,628.5,362.67Z" transform="translate(-1.91 -29.39)"/><path class="cls-6" d="M736.46,390.67a32.2,32.2,0,0,0-.88-10.47l-9,.75a23.61,23.61,0,0,0-3.61-7l5.81-6.88a32.58,32.58,0,0,0-8-6.78L715,367.17a23.51,23.51,0,0,0-7.51-2.4l-.75-9a32.2,32.2,0,0,0-10.47.88l.75,9a23.49,23.49,0,0,0-7,3.61l-6.88-5.81a32.58,32.58,0,0,0-6.78,8l6.88,5.82a23.51,23.51,0,0,0-2.4,7.51l-9,.75A32.2,32.2,0,0,0,672.7,396l9-.75a23.26,23.26,0,0,0,3.61,7l-5.81,6.88a32.58,32.58,0,0,0,8,6.78l5.82-6.88a23.43,23.43,0,0,0,7.51,2.4l.75,9a32.2,32.2,0,0,0,10.47-.88l-.75-9a23.38,23.38,0,0,0,7-3.61l6.88,5.81a32.58,32.58,0,0,0,6.78-8l-6.88-5.82a23.43,23.43,0,0,0,2.4-7.51Zm-31.35,9a11.6,11.6,0,1,1,10.59-12.53A11.59,11.59,0,0,1,705.11,399.67Z" transform="translate(-1.91 -29.39)"/><path class="cls-29" d="M39.21,291.9c9.44-3.55,17.18,7.89,19.41,17.47s15,3.69,19.11,15.07S73.34,344,79.22,350.36s28,28.24,18.31,69.14L67.75,433.69S43.1,412.34,43.34,393.25s.82-27.38-6.32-42-.91-24.05.36-32.08S31.34,294.86,39.21,291.9Z" transform="translate(-1.91 -29.39)"/><path class="cls-30" d="M42.61,296.89S72.76,382.84,79.75,429" transform="translate(-1.91 -29.39)"/><path class="cls-30" d="M63.6,320.29s-.11,14-4,26" transform="translate(-1.91 -29.39)"/><path class="cls-30" d="M39.79,342.91s12.41,13.81,23.93,16.85" transform="translate(-1.91 -29.39)"/><path class="cls-30" d="M79.75,359.7s-1.08,20.92-7.73,31" transform="translate(-1.91 -29.39)"/><path class="cls-30" d="M50.2,390.18a39.78,39.78,0,0,0,24.67,13.65" transform="translate(-1.91 -29.39)"/><path class="cls-31" d="M84.73,426.09s-13-34.31-8.79-54.3c3.77-17.68,16.32-8.74,19-22.57S91.13,323,92.48,311.7s9.64-12.52,15.83-9.44,7.32-16,14.77-16.39,11.3,5.87,15.77.05,10-12.88,18.81-10.73-10,24.69-4.25,26.36,8.14,12.4-1.78,26.85c-5.09,7.4,12.91,9.09,1.54,23.56-3.62,4.6-13.69,13.05-8.69,19.61s9.46,15.39.25,34.53C135.86,424.54,133.46,425,133.46,425Z" transform="translate(-1.91 -29.39)"/><path class="cls-30" d="M150.79,282.37s-42.92,48.57-42.92,143.21" transform="translate(-1.91 -29.39)"/><path class="cls-30" d="M126.69,292.29s-.56,13.34,3.61,24" transform="translate(-1.91 -29.39)"/><path class="cls-30" d="M153,312s-12.2,13.72-28.82,18.91" transform="translate(-1.91 -29.39)"/><path class="cls-30" d="M104.07,308.69a49.16,49.16,0,0,0,15.58,35.53" transform="translate(-1.91 -29.39)"/><path class="cls-30" d="M149.12,344.22S139,362.83,113.55,368" transform="translate(-1.91 -29.39)"/><path class="cls-30" d="M87.47,365.8a48.79,48.79,0,0,0,22,28.74" transform="translate(-1.91 -29.39)"/><path class="cls-30" d="M142.26,383.87S131,406.22,108.13,412.8" transform="translate(-1.91 -29.39)"/><line class="cls-30" x1="57.7" y1="449.7" x2="143.93" y2="449.7"/><path class="cls-5" d="M51.3,418.72c0,25.23,8.93,45.63,13.82,54.93A10.06,10.06,0,0,0,74,479.09h44.18a10,10,0,0,0,8.86-5.44c4.9-9.3,13.83-29.7,13.83-54.93Z" transform="translate(-1.91 -29.39)"/><path class="cls-32" d="M52.17,432.47c22.53,12.66,47.9,4.77,65.4-1.71a118.66,118.66,0,0,1,23.09-5.92c.12-2,.2-4,.2-6.12H51.3A110.51,110.51,0,0,0,52.17,432.47Z" transform="translate(-1.91 -29.39)"/><path class="cls-8" d="M186.52,226.14s10.39-3.26,10.77-11.42-24.51-8.14-23.42-18.74,44-10.54,46.63-30.46-23.1-20.11-34-21.47-22.56-2.72-20.11-13.86,10.6-25-13.86-28.82-32.9-1.36-32.9-1.36,27.73-.27,24.2,11.69-21.75,20.12-14.41,37.79,58.32,2.75,68.71,13.2-11.33,19-27.94,23.22c-18.91,4.79-25.89,13.7-17.66,17.48,9.06,4.18,40.37,2,30,20.53Z" transform="translate(-1.91 -29.39)"/><path class="cls-33" d="M185.5,221c-11.89,0-15.33,2.05-15.33,2.05a33.45,33.45,0,0,0,6.32,20,3.65,3.65,0,0,0,2.93,1.5h12.16a3.65,3.65,0,0,0,2.93-1.5,33.45,33.45,0,0,0,6.32-20S197.39,221,185.5,221Z" transform="translate(-1.91 -29.39)"/><path class="cls-34" d="M199,229.32s1.86-6.15,7.75-4.54c4.25,1.15,3.74,6.18,2.34,8.72-2.66,4.84-13,5.92-15.48,9" transform="translate(-1.91 -29.39)"/><path class="cls-9" d="M183.59,221c-10.34.21-13.42,2-13.42,2a33.45,33.45,0,0,0,6.32,20,3.66,3.66,0,0,0,2.93,1.5h.64C174.67,232.7,179.24,225.11,183.59,221Z" transform="translate(-1.91 -29.39)"/><polygon class="cls-11" points="259.23 224.75 285.6 446.73 293.9 446.73 274 224.75 259.23 224.75"/><polygon class="cls-11" points="180.35 224.75 163.73 455.55 172.04 455.55 195.12 224.75 180.35 224.75"/><polygon class="cls-11" points="466.85 224.75 450.23 455.55 458.54 455.55 481.62 224.75 466.85 224.75"/><polygon class="cls-11" points="545.73 224.75 572.1 446.73 580.41 446.73 560.5 224.75 545.73 224.75"/><line class="cls-35" x1="160.04" y1="455.55" x2="182.2" y2="455.55"/><line class="cls-35" x1="280.36" y1="446.73" x2="302.52" y2="446.73"/><line class="cls-35" x1="445.94" y1="455.55" x2="468.09" y2="455.55"/><line class="cls-35" x1="566.26" y1="446.73" x2="588.42" y2="446.73"/><rect class="cls-10" x="163.73" y="215.21" width="389.59" height="9.54"/><polygon class="cls-12" points="179.25 239.97 193.29 243.1 195.12 224.75 180.35 224.75 179.25 239.97"/><polygon class="cls-12" points="274 224.75 259.23 224.75 263.26 258.7 277.32 261.83 274 224.75"/><polygon class="cls-10" points="465.71 240.33 479.74 243.46 481.57 225.11 466.8 225.11 465.71 240.33"/><polygon class="cls-10" points="560.45 225.11 545.68 225.11 549.71 259.06 563.77 262.19 560.45 225.11"/><rect class="cls-11" x="450.23" y="215.21" width="126.02" height="9.54"/><g class="cls-36"><path d="M417.08,100.13l-24-14.7a41.4,41.4,0,0,0,.35-5.37,42.2,42.2,0,1,0-5.06,20.07Z" transform="translate(-1.91 -29.39)"/></g><path class="cls-33" d="M419.24,96.88l-24-14.7a43.24,43.24,0,0,0,.35-5.37,42.22,42.22,0,1,0-5.07,20.07Z" transform="translate(-1.91 -29.39)"/><text class="cls-37" transform="translate(317.74 62.93)">&lt;/&gt;</text><polygon class="cls-38" points="362.89 171.85 235.76 171.85 224.93 98.28 352.05 98.28 362.89 171.85"/><polygon class="cls-39" points="362.89 171.85 356.63 171.85 345.79 98.28 352.05 98.28 362.89 171.85"/><polygon class="cls-39" points="300.92 208.53 267.63 208.53 276.39 152.47 309.68 152.47 300.92 208.53"/><polygon class="cls-27" points="300.92 208.53 296.84 208.53 305.6 152.47 309.68 152.47 300.92 208.53"/><rect class="cls-27" x="250.87" y="208.53" width="83" height="6.68"/><rect class="cls-27" x="326.83" y="212.85" width="81.86" height="2.36"/><rect class="cls-40" x="567.76" y="148.87" width="103.11" height="53.48"/><rect class="cls-7" x="563.77" y="145.36" width="103.11" height="53.48"/><text class="cls-41" transform="translate(579.17 186.05)">C++</text><rect class="cls-40" x="5.22" y="167.4" width="134.98" height="70.01"/><rect class="cls-33" y="162.81" width="134.98" height="70.01"/><text class="cls-42" transform="translate(18.45 209.52)">HTML</text></svg>