<svg id="Layer_1" data-name="Layer 1" xmlns="http://www.w3.org/2000/svg" viewBox="0 0 581.15 1014.46"><defs><style>.cls-1{fill:#fff;}</style></defs><path class="cls-1" d="M88.39,445.52a5.74,5.74,0,1,0-5.75-5.74A5.74,5.74,0,0,0,88.39,445.52Z" transform="translate(-82.64 -434.04)"/><path class="cls-1" d="M121.79,445.52a5.74,5.74,0,1,0-5.74-5.74A5.74,5.74,0,0,0,121.79,445.52Z" transform="translate(-82.64 -434.04)"/><path class="cls-1" d="M155.2,445.52a5.74,5.74,0,1,0-5.74-5.74A5.74,5.74,0,0,0,155.2,445.52Z" transform="translate(-82.64 -434.04)"/><path class="cls-1" d="M188.61,445.52a5.74,5.74,0,1,0-5.75-5.74A5.74,5.74,0,0,0,188.61,445.52Z" transform="translate(-82.64 -434.04)"/><path class="cls-1" d="M222,445.52a5.74,5.74,0,1,0-5.75-5.74A5.74,5.74,0,0,0,222,445.52Z" transform="translate(-82.64 -434.04)"/><path class="cls-1" d="M255.42,445.52a5.74,5.74,0,1,0-5.74-5.74A5.74,5.74,0,0,0,255.42,445.52Z" transform="translate(-82.64 -434.04)"/><path class="cls-1" d="M88.39,478.93a5.75,5.75,0,1,0-5.75-5.74A5.74,5.74,0,0,0,88.39,478.93Z" transform="translate(-82.64 -434.04)"/><path class="cls-1" d="M121.79,478.93a5.75,5.75,0,1,0-5.74-5.74A5.74,5.74,0,0,0,121.79,478.93Z" transform="translate(-82.64 -434.04)"/><path class="cls-1" d="M155.2,478.93a5.75,5.75,0,1,0-5.74-5.74A5.74,5.74,0,0,0,155.2,478.93Z" transform="translate(-82.64 -434.04)"/><path class="cls-1" d="M188.61,478.93a5.75,5.75,0,1,0-5.75-5.74A5.74,5.74,0,0,0,188.61,478.93Z" transform="translate(-82.64 -434.04)"/><path class="cls-1" d="M222,478.93a5.75,5.75,0,1,0-5.75-5.74A5.74,5.74,0,0,0,222,478.93Z" transform="translate(-82.64 -434.04)"/><path class="cls-1" d="M255.42,478.93a5.75,5.75,0,1,0-5.74-5.74A5.74,5.74,0,0,0,255.42,478.93Z" transform="translate(-82.64 -434.04)"/><path class="cls-1" d="M88.39,512.34a5.75,5.75,0,1,0-5.75-5.75A5.74,5.74,0,0,0,88.39,512.34Z" transform="translate(-82.64 -434.04)"/><path class="cls-1" d="M121.79,512.34a5.75,5.75,0,1,0-5.74-5.75A5.74,5.74,0,0,0,121.79,512.34Z" transform="translate(-82.64 -434.04)"/><path class="cls-1" d="M155.2,512.34a5.75,5.75,0,1,0-5.74-5.75A5.74,5.74,0,0,0,155.2,512.34Z" transform="translate(-82.64 -434.04)"/><path class="cls-1" d="M188.61,512.34a5.75,5.75,0,1,0-5.75-5.75A5.74,5.74,0,0,0,188.61,512.34Z" transform="translate(-82.64 -434.04)"/><path class="cls-1" d="M222,512.34a5.75,5.75,0,1,0-5.75-5.75A5.74,5.74,0,0,0,222,512.34Z" transform="translate(-82.64 -434.04)"/><path class="cls-1" d="M255.42,512.34a5.75,5.75,0,1,0-5.74-5.75A5.74,5.74,0,0,0,255.42,512.34Z" transform="translate(-82.64 -434.04)"/><path class="cls-1" d="M88.39,545.75A5.75,5.75,0,1,0,82.64,540,5.75,5.75,0,0,0,88.39,545.75Z" transform="translate(-82.64 -434.04)"/><path class="cls-1" d="M121.79,545.75a5.75,5.75,0,1,0-5.74-5.75A5.75,5.75,0,0,0,121.79,545.75Z" transform="translate(-82.64 -434.04)"/><path class="cls-1" d="M155.2,545.75a5.75,5.75,0,1,0-5.74-5.75A5.75,5.75,0,0,0,155.2,545.75Z" transform="translate(-82.64 -434.04)"/><path class="cls-1" d="M188.61,545.75a5.75,5.75,0,1,0-5.75-5.75A5.75,5.75,0,0,0,188.61,545.75Z" transform="translate(-82.64 -434.04)"/><path class="cls-1" d="M222,545.75a5.75,5.75,0,1,0-5.75-5.75A5.75,5.75,0,0,0,222,545.75Z" transform="translate(-82.64 -434.04)"/><path class="cls-1" d="M255.42,545.75a5.75,5.75,0,1,0-5.74-5.75A5.75,5.75,0,0,0,255.42,545.75Z" transform="translate(-82.64 -434.04)"/><path class="cls-1" d="M88.39,579.15a5.74,5.74,0,1,0-5.75-5.74A5.74,5.74,0,0,0,88.39,579.15Z" transform="translate(-82.64 -434.04)"/><path class="cls-1" d="M121.79,579.15a5.74,5.74,0,1,0-5.74-5.74A5.74,5.74,0,0,0,121.79,579.15Z" transform="translate(-82.64 -434.04)"/><path class="cls-1" d="M155.2,579.15a5.74,5.74,0,1,0-5.74-5.74A5.74,5.74,0,0,0,155.2,579.15Z" transform="translate(-82.64 -434.04)"/><path class="cls-1" d="M188.61,579.15a5.74,5.74,0,1,0-5.75-5.74A5.74,5.74,0,0,0,188.61,579.15Z" transform="translate(-82.64 -434.04)"/><path class="cls-1" d="M222,579.15a5.74,5.74,0,1,0-5.75-5.74A5.74,5.74,0,0,0,222,579.15Z" transform="translate(-82.64 -434.04)"/><path class="cls-1" d="M255.42,579.15a5.74,5.74,0,1,0-5.74-5.74A5.74,5.74,0,0,0,255.42,579.15Z" transform="translate(-82.64 -434.04)"/><path class="cls-1" d="M88.39,612.56a5.75,5.75,0,1,0-5.75-5.74A5.74,5.74,0,0,0,88.39,612.56Z" transform="translate(-82.64 -434.04)"/><path class="cls-1" d="M121.79,612.56a5.75,5.75,0,1,0-5.74-5.74A5.74,5.74,0,0,0,121.79,612.56Z" transform="translate(-82.64 -434.04)"/><path class="cls-1" d="M155.2,612.56a5.75,5.75,0,1,0-5.74-5.74A5.74,5.74,0,0,0,155.2,612.56Z" transform="translate(-82.64 -434.04)"/><path class="cls-1" d="M188.61,612.56a5.75,5.75,0,1,0-5.75-5.74A5.74,5.74,0,0,0,188.61,612.56Z" transform="translate(-82.64 -434.04)"/><path class="cls-1" d="M222,612.56a5.75,5.75,0,1,0-5.75-5.74A5.74,5.74,0,0,0,222,612.56Z" transform="translate(-82.64 -434.04)"/><path class="cls-1" d="M255.42,612.56a5.75,5.75,0,1,0-5.74-5.74A5.74,5.74,0,0,0,255.42,612.56Z" transform="translate(-82.64 -434.04)"/><path class="cls-1" d="M88.39,646a5.75,5.75,0,1,0-5.75-5.74A5.74,5.74,0,0,0,88.39,646Z" transform="translate(-82.64 -434.04)"/><path class="cls-1" d="M121.79,646a5.75,5.75,0,1,0-5.74-5.74A5.74,5.74,0,0,0,121.79,646Z" transform="translate(-82.64 -434.04)"/><path class="cls-1" d="M155.2,646a5.75,5.75,0,1,0-5.74-5.74A5.74,5.74,0,0,0,155.2,646Z" transform="translate(-82.64 -434.04)"/><path class="cls-1" d="M188.61,646a5.75,5.75,0,1,0-5.75-5.74A5.74,5.74,0,0,0,188.61,646Z" transform="translate(-82.64 -434.04)"/><path class="cls-1" d="M222,646a5.75,5.75,0,1,0-5.75-5.74A5.74,5.74,0,0,0,222,646Z" transform="translate(-82.64 -434.04)"/><path class="cls-1" d="M255.42,646a5.75,5.75,0,1,0-5.74-5.74A5.74,5.74,0,0,0,255.42,646Z" transform="translate(-82.64 -434.04)"/><path class="cls-1" d="M88.39,679.38a5.75,5.75,0,1,0-5.75-5.75A5.74,5.74,0,0,0,88.39,679.38Z" transform="translate(-82.64 -434.04)"/><path class="cls-1" d="M121.79,679.38a5.75,5.75,0,1,0-5.74-5.75A5.74,5.74,0,0,0,121.79,679.38Z" transform="translate(-82.64 -434.04)"/><path class="cls-1" d="M155.2,679.38a5.75,5.75,0,1,0-5.74-5.75A5.74,5.74,0,0,0,155.2,679.38Z" transform="translate(-82.64 -434.04)"/><path class="cls-1" d="M188.61,679.38a5.75,5.75,0,1,0-5.75-5.75A5.74,5.74,0,0,0,188.61,679.38Z" transform="translate(-82.64 -434.04)"/><path class="cls-1" d="M222,679.38a5.75,5.75,0,1,0-5.75-5.75A5.74,5.74,0,0,0,222,679.38Z" transform="translate(-82.64 -434.04)"/><path class="cls-1" d="M255.42,679.38a5.75,5.75,0,1,0-5.74-5.75A5.74,5.74,0,0,0,255.42,679.38Z" transform="translate(-82.64 -434.04)"/><path class="cls-1" d="M88.39,712.78A5.74,5.74,0,1,0,82.64,707,5.74,5.74,0,0,0,88.39,712.78Z" transform="translate(-82.64 -434.04)"/><path class="cls-1" d="M121.79,712.78a5.74,5.74,0,1,0-5.74-5.74A5.74,5.74,0,0,0,121.79,712.78Z" transform="translate(-82.64 -434.04)"/><path class="cls-1" d="M155.2,712.78a5.74,5.74,0,1,0-5.74-5.74A5.74,5.74,0,0,0,155.2,712.78Z" transform="translate(-82.64 -434.04)"/><path class="cls-1" d="M188.61,712.78a5.74,5.74,0,1,0-5.75-5.74A5.74,5.74,0,0,0,188.61,712.78Z" transform="translate(-82.64 -434.04)"/><path class="cls-1" d="M222,712.78a5.74,5.74,0,1,0-5.75-5.74A5.74,5.74,0,0,0,222,712.78Z" transform="translate(-82.64 -434.04)"/><path class="cls-1" d="M255.42,712.78a5.74,5.74,0,1,0-5.74-5.74A5.74,5.74,0,0,0,255.42,712.78Z" transform="translate(-82.64 -434.04)"/><path class="cls-1" d="M88.39,746.19a5.74,5.74,0,1,0-5.75-5.74A5.74,5.74,0,0,0,88.39,746.19Z" transform="translate(-82.64 -434.04)"/><path class="cls-1" d="M121.79,746.19a5.74,5.74,0,1,0-5.74-5.74A5.74,5.74,0,0,0,121.79,746.19Z" transform="translate(-82.64 -434.04)"/><path class="cls-1" d="M155.2,746.19a5.74,5.74,0,1,0-5.74-5.74A5.74,5.74,0,0,0,155.2,746.19Z" transform="translate(-82.64 -434.04)"/><path class="cls-1" d="M188.61,746.19a5.74,5.74,0,1,0-5.75-5.74A5.74,5.74,0,0,0,188.61,746.19Z" transform="translate(-82.64 -434.04)"/><path class="cls-1" d="M222,746.19a5.74,5.74,0,1,0-5.75-5.74A5.74,5.74,0,0,0,222,746.19Z" transform="translate(-82.64 -434.04)"/><path class="cls-1" d="M255.42,746.19a5.74,5.74,0,1,0-5.74-5.74A5.74,5.74,0,0,0,255.42,746.19Z" transform="translate(-82.64 -434.04)"/><path class="cls-1" d="M88.39,779.6a5.75,5.75,0,1,0-5.75-5.74A5.74,5.74,0,0,0,88.39,779.6Z" transform="translate(-82.64 -434.04)"/><path class="cls-1" d="M121.79,779.6a5.75,5.75,0,1,0-5.74-5.74A5.74,5.74,0,0,0,121.79,779.6Z" transform="translate(-82.64 -434.04)"/><path class="cls-1" d="M155.2,779.6a5.75,5.75,0,1,0-5.74-5.74A5.74,5.74,0,0,0,155.2,779.6Z" transform="translate(-82.64 -434.04)"/><path class="cls-1" d="M188.61,779.6a5.75,5.75,0,1,0-5.75-5.74A5.74,5.74,0,0,0,188.61,779.6Z" transform="translate(-82.64 -434.04)"/><path class="cls-1" d="M222,779.6a5.75,5.75,0,1,0-5.75-5.74A5.74,5.74,0,0,0,222,779.6Z" transform="translate(-82.64 -434.04)"/><path class="cls-1" d="M255.42,779.6a5.75,5.75,0,1,0-5.74-5.74A5.74,5.74,0,0,0,255.42,779.6Z" transform="translate(-82.64 -434.04)"/><path class="cls-1" d="M88.39,813a5.75,5.75,0,1,0-5.75-5.75A5.74,5.74,0,0,0,88.39,813Z" transform="translate(-82.64 -434.04)"/><path class="cls-1" d="M121.79,813a5.75,5.75,0,1,0-5.74-5.75A5.74,5.74,0,0,0,121.79,813Z" transform="translate(-82.64 -434.04)"/><path class="cls-1" d="M155.2,813a5.75,5.75,0,1,0-5.74-5.75A5.74,5.74,0,0,0,155.2,813Z" transform="translate(-82.64 -434.04)"/><path class="cls-1" d="M188.61,813a5.75,5.75,0,1,0-5.75-5.75A5.74,5.74,0,0,0,188.61,813Z" transform="translate(-82.64 -434.04)"/><path class="cls-1" d="M222,813a5.75,5.75,0,1,0-5.75-5.75A5.74,5.74,0,0,0,222,813Z" transform="translate(-82.64 -434.04)"/><path class="cls-1" d="M255.42,813a5.75,5.75,0,1,0-5.74-5.75A5.74,5.74,0,0,0,255.42,813Z" transform="translate(-82.64 -434.04)"/><path class="cls-1" d="M88.39,846.42a5.75,5.75,0,1,0-5.75-5.75A5.75,5.75,0,0,0,88.39,846.42Z" transform="translate(-82.64 -434.04)"/><path class="cls-1" d="M121.79,846.42a5.75,5.75,0,1,0-5.74-5.75A5.75,5.75,0,0,0,121.79,846.42Z" transform="translate(-82.64 -434.04)"/><path class="cls-1" d="M155.2,846.42a5.75,5.75,0,1,0-5.74-5.75A5.75,5.75,0,0,0,155.2,846.42Z" transform="translate(-82.64 -434.04)"/><path class="cls-1" d="M188.61,846.42a5.75,5.75,0,1,0-5.75-5.75A5.75,5.75,0,0,0,188.61,846.42Z" transform="translate(-82.64 -434.04)"/><path class="cls-1" d="M222,846.42a5.75,5.75,0,1,0-5.75-5.75A5.75,5.75,0,0,0,222,846.42Z" transform="translate(-82.64 -434.04)"/><path class="cls-1" d="M255.42,846.42a5.75,5.75,0,1,0-5.74-5.75A5.75,5.75,0,0,0,255.42,846.42Z" transform="translate(-82.64 -434.04)"/><path class="cls-1" d="M88.39,879.82a5.74,5.74,0,1,0-5.75-5.74A5.74,5.74,0,0,0,88.39,879.82Z" transform="translate(-82.64 -434.04)"/><path class="cls-1" d="M121.79,879.82a5.74,5.74,0,1,0-5.74-5.74A5.74,5.74,0,0,0,121.79,879.82Z" transform="translate(-82.64 -434.04)"/><path class="cls-1" d="M155.2,879.82a5.74,5.74,0,1,0-5.74-5.74A5.74,5.74,0,0,0,155.2,879.82Z" transform="translate(-82.64 -434.04)"/><path class="cls-1" d="M188.61,879.82a5.74,5.74,0,1,0-5.75-5.74A5.74,5.74,0,0,0,188.61,879.82Z" transform="translate(-82.64 -434.04)"/><path class="cls-1" d="M222,879.82a5.74,5.74,0,1,0-5.75-5.74A5.74,5.74,0,0,0,222,879.82Z" transform="translate(-82.64 -434.04)"/><path class="cls-1" d="M255.42,879.82a5.74,5.74,0,1,0-5.74-5.74A5.74,5.74,0,0,0,255.42,879.82Z" transform="translate(-82.64 -434.04)"/><path class="cls-1" d="M88.39,913.23a5.75,5.75,0,1,0-5.75-5.74A5.74,5.74,0,0,0,88.39,913.23Z" transform="translate(-82.64 -434.04)"/><path class="cls-1" d="M121.79,913.23a5.75,5.75,0,1,0-5.74-5.74A5.74,5.74,0,0,0,121.79,913.23Z" transform="translate(-82.64 -434.04)"/><path class="cls-1" d="M155.2,913.23a5.75,5.75,0,1,0-5.74-5.74A5.74,5.74,0,0,0,155.2,913.23Z" transform="translate(-82.64 -434.04)"/><path class="cls-1" d="M188.61,913.23a5.75,5.75,0,1,0-5.75-5.74A5.74,5.74,0,0,0,188.61,913.23Z" transform="translate(-82.64 -434.04)"/><path class="cls-1" d="M222,913.23a5.75,5.75,0,1,0-5.75-5.74A5.74,5.74,0,0,0,222,913.23Z" transform="translate(-82.64 -434.04)"/><path class="cls-1" d="M255.42,913.23a5.75,5.75,0,1,0-5.74-5.74A5.74,5.74,0,0,0,255.42,913.23Z" transform="translate(-82.64 -434.04)"/><path class="cls-1" d="M88.39,946.64a5.75,5.75,0,1,0-5.75-5.75A5.74,5.74,0,0,0,88.39,946.64Z" transform="translate(-82.64 -434.04)"/><path class="cls-1" d="M121.79,946.64a5.75,5.75,0,1,0-5.74-5.75A5.74,5.74,0,0,0,121.79,946.64Z" transform="translate(-82.64 -434.04)"/><path class="cls-1" d="M155.2,946.64a5.75,5.75,0,1,0-5.74-5.75A5.74,5.74,0,0,0,155.2,946.64Z" transform="translate(-82.64 -434.04)"/><path class="cls-1" d="M188.61,946.64a5.75,5.75,0,1,0-5.75-5.75A5.74,5.74,0,0,0,188.61,946.64Z" transform="translate(-82.64 -434.04)"/><path class="cls-1" d="M222,946.64a5.75,5.75,0,1,0-5.75-5.75A5.74,5.74,0,0,0,222,946.64Z" transform="translate(-82.64 -434.04)"/><path class="cls-1" d="M255.42,946.64a5.75,5.75,0,1,0-5.74-5.75A5.74,5.74,0,0,0,255.42,946.64Z" transform="translate(-82.64 -434.04)"/><path class="cls-1" d="M88.39,980.05a5.75,5.75,0,1,0-5.75-5.75A5.75,5.75,0,0,0,88.39,980.05Z" transform="translate(-82.64 -434.04)"/><path class="cls-1" d="M121.79,980.05a5.75,5.75,0,1,0-5.74-5.75A5.75,5.75,0,0,0,121.79,980.05Z" transform="translate(-82.64 -434.04)"/><path class="cls-1" d="M155.2,980.05a5.75,5.75,0,1,0-5.74-5.75A5.75,5.75,0,0,0,155.2,980.05Z" transform="translate(-82.64 -434.04)"/><path class="cls-1" d="M188.61,980.05a5.75,5.75,0,1,0-5.75-5.75A5.75,5.75,0,0,0,188.61,980.05Z" transform="translate(-82.64 -434.04)"/><path class="cls-1" d="M222,980.05a5.75,5.75,0,1,0-5.75-5.75A5.75,5.75,0,0,0,222,980.05Z" transform="translate(-82.64 -434.04)"/><path class="cls-1" d="M255.42,980.05a5.75,5.75,0,1,0-5.74-5.75A5.75,5.75,0,0,0,255.42,980.05Z" transform="translate(-82.64 -434.04)"/><path class="cls-1" d="M88.39,1013.45a5.74,5.74,0,1,0-5.75-5.74A5.74,5.74,0,0,0,88.39,1013.45Z" transform="translate(-82.64 -434.04)"/><path class="cls-1" d="M121.79,1013.45a5.74,5.74,0,1,0-5.74-5.74A5.74,5.74,0,0,0,121.79,1013.45Z" transform="translate(-82.64 -434.04)"/><path class="cls-1" d="M155.2,1013.45a5.74,5.74,0,1,0-5.74-5.74A5.74,5.74,0,0,0,155.2,1013.45Z" transform="translate(-82.64 -434.04)"/><path class="cls-1" d="M188.61,1013.45a5.74,5.74,0,1,0-5.75-5.74A5.74,5.74,0,0,0,188.61,1013.45Z" transform="translate(-82.64 -434.04)"/><path class="cls-1" d="M222,1013.45a5.74,5.74,0,1,0-5.75-5.74A5.74,5.74,0,0,0,222,1013.45Z" transform="translate(-82.64 -434.04)"/><path class="cls-1" d="M255.42,1013.45a5.74,5.74,0,1,0-5.74-5.74A5.74,5.74,0,0,0,255.42,1013.45Z" transform="translate(-82.64 -434.04)"/><path class="cls-1" d="M88.39,1046.86a5.75,5.75,0,1,0-5.75-5.74A5.74,5.74,0,0,0,88.39,1046.86Z" transform="translate(-82.64 -434.04)"/><path class="cls-1" d="M121.79,1046.86a5.75,5.75,0,1,0-5.74-5.74A5.74,5.74,0,0,0,121.79,1046.86Z" transform="translate(-82.64 -434.04)"/><path class="cls-1" d="M155.2,1046.86a5.75,5.75,0,1,0-5.74-5.74A5.74,5.74,0,0,0,155.2,1046.86Z" transform="translate(-82.64 -434.04)"/><path class="cls-1" d="M188.61,1046.86a5.75,5.75,0,1,0-5.75-5.74A5.74,5.74,0,0,0,188.61,1046.86Z" transform="translate(-82.64 -434.04)"/><path class="cls-1" d="M222,1046.86a5.75,5.75,0,1,0-5.75-5.74A5.74,5.74,0,0,0,222,1046.86Z" transform="translate(-82.64 -434.04)"/><path class="cls-1" d="M255.42,1046.86a5.75,5.75,0,1,0-5.74-5.74A5.74,5.74,0,0,0,255.42,1046.86Z" transform="translate(-82.64 -434.04)"/><path class="cls-1" d="M88.39,1080.27a5.75,5.75,0,1,0-5.75-5.75A5.74,5.74,0,0,0,88.39,1080.27Z" transform="translate(-82.64 -434.04)"/><path class="cls-1" d="M121.79,1080.27a5.75,5.75,0,1,0-5.74-5.75A5.74,5.74,0,0,0,121.79,1080.27Z" transform="translate(-82.64 -434.04)"/><path class="cls-1" d="M155.2,1080.27a5.75,5.75,0,1,0-5.74-5.75A5.74,5.74,0,0,0,155.2,1080.27Z" transform="translate(-82.64 -434.04)"/><path class="cls-1" d="M188.61,1080.27a5.75,5.75,0,1,0-5.75-5.75A5.74,5.74,0,0,0,188.61,1080.27Z" transform="translate(-82.64 -434.04)"/><path class="cls-1" d="M222,1080.27a5.75,5.75,0,1,0-5.75-5.75A5.74,5.74,0,0,0,222,1080.27Z" transform="translate(-82.64 -434.04)"/><path class="cls-1" d="M255.42,1080.27a5.75,5.75,0,1,0-5.74-5.75A5.74,5.74,0,0,0,255.42,1080.27Z" transform="translate(-82.64 -434.04)"/><path class="cls-1" d="M88.39,1113.68a5.75,5.75,0,1,0-5.75-5.75A5.75,5.75,0,0,0,88.39,1113.68Z" transform="translate(-82.64 -434.04)"/><path class="cls-1" d="M121.79,1113.68a5.75,5.75,0,1,0-5.74-5.75A5.75,5.75,0,0,0,121.79,1113.68Z" transform="translate(-82.64 -434.04)"/><path class="cls-1" d="M155.2,1113.68a5.75,5.75,0,1,0-5.74-5.75A5.75,5.75,0,0,0,155.2,1113.68Z" transform="translate(-82.64 -434.04)"/><path class="cls-1" d="M188.61,1113.68a5.75,5.75,0,1,0-5.75-5.75A5.75,5.75,0,0,0,188.61,1113.68Z" transform="translate(-82.64 -434.04)"/><path class="cls-1" d="M222,1113.68a5.75,5.75,0,1,0-5.75-5.75A5.75,5.75,0,0,0,222,1113.68Z" transform="translate(-82.64 -434.04)"/><path class="cls-1" d="M255.42,1113.68a5.75,5.75,0,1,0-5.74-5.75A5.75,5.75,0,0,0,255.42,1113.68Z" transform="translate(-82.64 -434.04)"/><path class="cls-1" d="M88.39,1147.08a5.74,5.74,0,1,0-5.75-5.74A5.74,5.74,0,0,0,88.39,1147.08Z" transform="translate(-82.64 -434.04)"/><path class="cls-1" d="M121.79,1147.08a5.74,5.74,0,1,0-5.74-5.74A5.74,5.74,0,0,0,121.79,1147.08Z" transform="translate(-82.64 -434.04)"/><path class="cls-1" d="M155.2,1147.08a5.74,5.74,0,1,0-5.74-5.74A5.74,5.74,0,0,0,155.2,1147.08Z" transform="translate(-82.64 -434.04)"/><path class="cls-1" d="M188.61,1147.08a5.74,5.74,0,1,0-5.75-5.74A5.74,5.74,0,0,0,188.61,1147.08Z" transform="translate(-82.64 -434.04)"/><path class="cls-1" d="M222,1147.08a5.74,5.74,0,1,0-5.75-5.74A5.74,5.74,0,0,0,222,1147.08Z" transform="translate(-82.64 -434.04)"/><path class="cls-1" d="M255.42,1147.08a5.74,5.74,0,1,0-5.74-5.74A5.74,5.74,0,0,0,255.42,1147.08Z" transform="translate(-82.64 -434.04)"/><path class="cls-1" d="M88.39,1180.49a5.75,5.75,0,1,0-5.75-5.74A5.74,5.74,0,0,0,88.39,1180.49Z" transform="translate(-82.64 -434.04)"/><path class="cls-1" d="M121.79,1180.49a5.75,5.75,0,1,0-5.74-5.74A5.74,5.74,0,0,0,121.79,1180.49Z" transform="translate(-82.64 -434.04)"/><path class="cls-1" d="M155.2,1180.49a5.75,5.75,0,1,0-5.74-5.74A5.74,5.74,0,0,0,155.2,1180.49Z" transform="translate(-82.64 -434.04)"/><path class="cls-1" d="M188.61,1180.49a5.75,5.75,0,1,0-5.75-5.74A5.74,5.74,0,0,0,188.61,1180.49Z" transform="translate(-82.64 -434.04)"/><path class="cls-1" d="M222,1180.49a5.75,5.75,0,1,0-5.75-5.74A5.74,5.74,0,0,0,222,1180.49Z" transform="translate(-82.64 -434.04)"/><path class="cls-1" d="M255.42,1180.49a5.75,5.75,0,1,0-5.74-5.74A5.74,5.74,0,0,0,255.42,1180.49Z" transform="translate(-82.64 -434.04)"/><path class="cls-1" d="M88.39,1213.9a5.75,5.75,0,1,0-5.75-5.74A5.74,5.74,0,0,0,88.39,1213.9Z" transform="translate(-82.64 -434.04)"/><path class="cls-1" d="M121.79,1213.9a5.75,5.75,0,1,0-5.74-5.74A5.74,5.74,0,0,0,121.79,1213.9Z" transform="translate(-82.64 -434.04)"/><path class="cls-1" d="M155.2,1213.9a5.75,5.75,0,1,0-5.74-5.74A5.74,5.74,0,0,0,155.2,1213.9Z" transform="translate(-82.64 -434.04)"/><path class="cls-1" d="M188.61,1213.9a5.75,5.75,0,1,0-5.75-5.74A5.74,5.74,0,0,0,188.61,1213.9Z" transform="translate(-82.64 -434.04)"/><path class="cls-1" d="M222,1213.9a5.75,5.75,0,1,0-5.75-5.74A5.74,5.74,0,0,0,222,1213.9Z" transform="translate(-82.64 -434.04)"/><path class="cls-1" d="M255.42,1213.9a5.75,5.75,0,1,0-5.74-5.74A5.74,5.74,0,0,0,255.42,1213.9Z" transform="translate(-82.64 -434.04)"/><path class="cls-1" d="M88.39,1247.31a5.75,5.75,0,1,0-5.75-5.75A5.74,5.74,0,0,0,88.39,1247.31Z" transform="translate(-82.64 -434.04)"/><path class="cls-1" d="M121.79,1247.31a5.75,5.75,0,1,0-5.74-5.75A5.74,5.74,0,0,0,121.79,1247.31Z" transform="translate(-82.64 -434.04)"/><path class="cls-1" d="M155.2,1247.31a5.75,5.75,0,1,0-5.74-5.75A5.74,5.74,0,0,0,155.2,1247.31Z" transform="translate(-82.64 -434.04)"/><path class="cls-1" d="M188.61,1247.31a5.75,5.75,0,1,0-5.75-5.75A5.74,5.74,0,0,0,188.61,1247.31Z" transform="translate(-82.64 -434.04)"/><path class="cls-1" d="M222,1247.31a5.75,5.75,0,1,0-5.75-5.75A5.74,5.74,0,0,0,222,1247.31Z" transform="translate(-82.64 -434.04)"/><path class="cls-1" d="M255.42,1247.31a5.75,5.75,0,1,0-5.74-5.75A5.74,5.74,0,0,0,255.42,1247.31Z" transform="translate(-82.64 -434.04)"/><path class="cls-1" d="M88.39,1280.71a5.74,5.74,0,1,0-5.75-5.74A5.74,5.74,0,0,0,88.39,1280.71Z" transform="translate(-82.64 -434.04)"/><path class="cls-1" d="M121.79,1280.71a5.74,5.74,0,1,0-5.74-5.74A5.74,5.74,0,0,0,121.79,1280.71Z" transform="translate(-82.64 -434.04)"/><path class="cls-1" d="M155.2,1280.71a5.74,5.74,0,1,0-5.74-5.74A5.74,5.74,0,0,0,155.2,1280.71Z" transform="translate(-82.64 -434.04)"/><path class="cls-1" d="M188.61,1280.71a5.74,5.74,0,1,0-5.75-5.74A5.74,5.74,0,0,0,188.61,1280.71Z" transform="translate(-82.64 -434.04)"/><path class="cls-1" d="M222,1280.71a5.74,5.74,0,1,0-5.75-5.74A5.74,5.74,0,0,0,222,1280.71Z" transform="translate(-82.64 -434.04)"/><path class="cls-1" d="M255.42,1280.71a5.74,5.74,0,1,0-5.74-5.74A5.74,5.74,0,0,0,255.42,1280.71Z" transform="translate(-82.64 -434.04)"/><path class="cls-1" d="M88.39,1314.12a5.74,5.74,0,1,0-5.75-5.74A5.74,5.74,0,0,0,88.39,1314.12Z" transform="translate(-82.64 -434.04)"/><path class="cls-1" d="M121.79,1314.12a5.74,5.74,0,1,0-5.74-5.74A5.74,5.74,0,0,0,121.79,1314.12Z" transform="translate(-82.64 -434.04)"/><path class="cls-1" d="M155.2,1314.12a5.74,5.74,0,1,0-5.74-5.74A5.74,5.74,0,0,0,155.2,1314.12Z" transform="translate(-82.64 -434.04)"/><path class="cls-1" d="M188.61,1314.12a5.74,5.74,0,1,0-5.75-5.74A5.74,5.74,0,0,0,188.61,1314.12Z" transform="translate(-82.64 -434.04)"/><path class="cls-1" d="M222,1314.12a5.74,5.74,0,1,0-5.75-5.74A5.74,5.74,0,0,0,222,1314.12Z" transform="translate(-82.64 -434.04)"/><path class="cls-1" d="M255.42,1314.12a5.74,5.74,0,1,0-5.74-5.74A5.74,5.74,0,0,0,255.42,1314.12Z" transform="translate(-82.64 -434.04)"/><path class="cls-1" d="M88.39,1347.53a5.75,5.75,0,1,0-5.75-5.74A5.74,5.74,0,0,0,88.39,1347.53Z" transform="translate(-82.64 -434.04)"/><path class="cls-1" d="M121.79,1347.53a5.75,5.75,0,1,0-5.74-5.74A5.74,5.74,0,0,0,121.79,1347.53Z" transform="translate(-82.64 -434.04)"/><path class="cls-1" d="M155.2,1347.53a5.75,5.75,0,1,0-5.74-5.74A5.74,5.74,0,0,0,155.2,1347.53Z" transform="translate(-82.64 -434.04)"/><path class="cls-1" d="M188.61,1347.53a5.75,5.75,0,1,0-5.75-5.74A5.74,5.74,0,0,0,188.61,1347.53Z" transform="translate(-82.64 -434.04)"/><path class="cls-1" d="M222,1347.53a5.75,5.75,0,1,0-5.75-5.74A5.74,5.74,0,0,0,222,1347.53Z" transform="translate(-82.64 -434.04)"/><path class="cls-1" d="M255.42,1347.53a5.75,5.75,0,1,0-5.74-5.74A5.74,5.74,0,0,0,255.42,1347.53Z" transform="translate(-82.64 -434.04)"/><path class="cls-1" d="M88.39,1380.94a5.75,5.75,0,1,0-5.75-5.75A5.74,5.74,0,0,0,88.39,1380.94Z" transform="translate(-82.64 -434.04)"/><path class="cls-1" d="M121.79,1380.94a5.75,5.75,0,1,0-5.74-5.75A5.74,5.74,0,0,0,121.79,1380.94Z" transform="translate(-82.64 -434.04)"/><path class="cls-1" d="M155.2,1380.94a5.75,5.75,0,1,0-5.74-5.75A5.74,5.74,0,0,0,155.2,1380.94Z" transform="translate(-82.64 -434.04)"/><path class="cls-1" d="M188.61,1380.94a5.75,5.75,0,1,0-5.75-5.75A5.74,5.74,0,0,0,188.61,1380.94Z" transform="translate(-82.64 -434.04)"/><path class="cls-1" d="M222,1380.94a5.75,5.75,0,1,0-5.75-5.75A5.74,5.74,0,0,0,222,1380.94Z" transform="translate(-82.64 -434.04)"/><path class="cls-1" d="M255.42,1380.94a5.75,5.75,0,1,0-5.74-5.75A5.74,5.74,0,0,0,255.42,1380.94Z" transform="translate(-82.64 -434.04)"/><path class="cls-1" d="M88.39,1414.35a5.75,5.75,0,1,0-5.75-5.75A5.75,5.75,0,0,0,88.39,1414.35Z" transform="translate(-82.64 -434.04)"/><path class="cls-1" d="M121.79,1414.35a5.75,5.75,0,1,0-5.74-5.75A5.75,5.75,0,0,0,121.79,1414.35Z" transform="translate(-82.64 -434.04)"/><path class="cls-1" d="M155.2,1414.35a5.75,5.75,0,1,0-5.74-5.75A5.75,5.75,0,0,0,155.2,1414.35Z" transform="translate(-82.64 -434.04)"/><path class="cls-1" d="M188.61,1414.35a5.75,5.75,0,1,0-5.75-5.75A5.75,5.75,0,0,0,188.61,1414.35Z" transform="translate(-82.64 -434.04)"/><path class="cls-1" d="M222,1414.35a5.75,5.75,0,1,0-5.75-5.75A5.75,5.75,0,0,0,222,1414.35Z" transform="translate(-82.64 -434.04)"/><path class="cls-1" d="M255.42,1414.35a5.75,5.75,0,1,0-5.74-5.75A5.75,5.75,0,0,0,255.42,1414.35Z" transform="translate(-82.64 -434.04)"/><path class="cls-1" d="M88.39,1447.75a5.74,5.74,0,1,0-5.75-5.74A5.74,5.74,0,0,0,88.39,1447.75Z" transform="translate(-82.64 -434.04)"/><path class="cls-1" d="M121.79,1447.75a5.74,5.74,0,1,0-5.74-5.74A5.74,5.74,0,0,0,121.79,1447.75Z" transform="translate(-82.64 -434.04)"/><path class="cls-1" d="M155.2,1447.75a5.74,5.74,0,1,0-5.74-5.74A5.74,5.74,0,0,0,155.2,1447.75Z" transform="translate(-82.64 -434.04)"/><path class="cls-1" d="M188.61,1447.75a5.74,5.74,0,1,0-5.75-5.74A5.74,5.74,0,0,0,188.61,1447.75Z" transform="translate(-82.64 -434.04)"/><path class="cls-1" d="M222,1447.75a5.74,5.74,0,1,0-5.75-5.74A5.74,5.74,0,0,0,222,1447.75Z" transform="translate(-82.64 -434.04)"/><path class="cls-1" d="M255.42,1447.75a5.74,5.74,0,1,0-5.74-5.74A5.74,5.74,0,0,0,255.42,1447.75Z" transform="translate(-82.64 -434.04)"/><path class="cls-1" d="M291.42,446.27a5.75,5.75,0,1,0-5.74-5.74A5.74,5.74,0,0,0,291.42,446.27Z" transform="translate(-82.64 -434.04)"/><path class="cls-1" d="M324.83,446.27a5.75,5.75,0,1,0-5.75-5.74A5.74,5.74,0,0,0,324.83,446.27Z" transform="translate(-82.64 -434.04)"/><path class="cls-1" d="M358.24,446.27a5.75,5.75,0,1,0-5.75-5.74A5.74,5.74,0,0,0,358.24,446.27Z" transform="translate(-82.64 -434.04)"/><path class="cls-1" d="M391.64,446.27a5.75,5.75,0,1,0-5.74-5.74A5.74,5.74,0,0,0,391.64,446.27Z" transform="translate(-82.64 -434.04)"/><path class="cls-1" d="M425.05,446.27a5.75,5.75,0,1,0-5.74-5.74A5.74,5.74,0,0,0,425.05,446.27Z" transform="translate(-82.64 -434.04)"/><path class="cls-1" d="M458.46,446.27a5.75,5.75,0,1,0-5.75-5.74A5.74,5.74,0,0,0,458.46,446.27Z" transform="translate(-82.64 -434.04)"/><path class="cls-1" d="M291.42,479.68a5.75,5.75,0,1,0-5.74-5.74A5.74,5.74,0,0,0,291.42,479.68Z" transform="translate(-82.64 -434.04)"/><path class="cls-1" d="M324.83,479.68a5.75,5.75,0,1,0-5.75-5.74A5.74,5.74,0,0,0,324.83,479.68Z" transform="translate(-82.64 -434.04)"/><path class="cls-1" d="M358.24,479.68a5.75,5.75,0,1,0-5.75-5.74A5.74,5.74,0,0,0,358.24,479.68Z" transform="translate(-82.64 -434.04)"/><path class="cls-1" d="M391.64,479.68a5.75,5.75,0,1,0-5.74-5.74A5.74,5.74,0,0,0,391.64,479.68Z" transform="translate(-82.64 -434.04)"/><path class="cls-1" d="M425.05,479.68a5.75,5.75,0,1,0-5.74-5.74A5.74,5.74,0,0,0,425.05,479.68Z" transform="translate(-82.64 -434.04)"/><path class="cls-1" d="M458.46,479.68a5.75,5.75,0,1,0-5.75-5.74A5.74,5.74,0,0,0,458.46,479.68Z" transform="translate(-82.64 -434.04)"/><path class="cls-1" d="M291.42,513.09a5.75,5.75,0,1,0-5.74-5.75A5.74,5.74,0,0,0,291.42,513.09Z" transform="translate(-82.64 -434.04)"/><path class="cls-1" d="M324.83,513.09a5.75,5.75,0,1,0-5.75-5.75A5.74,5.74,0,0,0,324.83,513.09Z" transform="translate(-82.64 -434.04)"/><path class="cls-1" d="M358.24,513.09a5.75,5.75,0,1,0-5.75-5.75A5.74,5.74,0,0,0,358.24,513.09Z" transform="translate(-82.64 -434.04)"/><path class="cls-1" d="M391.64,513.09a5.75,5.75,0,1,0-5.74-5.75A5.74,5.74,0,0,0,391.64,513.09Z" transform="translate(-82.64 -434.04)"/><path class="cls-1" d="M425.05,513.09a5.75,5.75,0,1,0-5.74-5.75A5.74,5.74,0,0,0,425.05,513.09Z" transform="translate(-82.64 -434.04)"/><path class="cls-1" d="M458.46,513.09a5.75,5.75,0,1,0-5.75-5.75A5.74,5.74,0,0,0,458.46,513.09Z" transform="translate(-82.64 -434.04)"/><path class="cls-1" d="M291.42,546.49a5.74,5.74,0,1,0-5.74-5.74A5.74,5.74,0,0,0,291.42,546.49Z" transform="translate(-82.64 -434.04)"/><path class="cls-1" d="M324.83,546.49a5.74,5.74,0,1,0-5.75-5.74A5.74,5.74,0,0,0,324.83,546.49Z" transform="translate(-82.64 -434.04)"/><path class="cls-1" d="M358.24,546.49a5.74,5.74,0,1,0-5.75-5.74A5.74,5.74,0,0,0,358.24,546.49Z" transform="translate(-82.64 -434.04)"/><path class="cls-1" d="M391.64,546.49a5.74,5.74,0,1,0-5.74-5.74A5.74,5.74,0,0,0,391.64,546.49Z" transform="translate(-82.64 -434.04)"/><path class="cls-1" d="M425.05,546.49a5.74,5.74,0,1,0-5.74-5.74A5.74,5.74,0,0,0,425.05,546.49Z" transform="translate(-82.64 -434.04)"/><path class="cls-1" d="M458.46,546.49a5.74,5.74,0,1,0-5.75-5.74A5.74,5.74,0,0,0,458.46,546.49Z" transform="translate(-82.64 -434.04)"/><path class="cls-1" d="M291.42,579.9a5.75,5.75,0,1,0-5.74-5.74A5.74,5.74,0,0,0,291.42,579.9Z" transform="translate(-82.64 -434.04)"/><path class="cls-1" d="M324.83,579.9a5.75,5.75,0,1,0-5.75-5.74A5.74,5.74,0,0,0,324.83,579.9Z" transform="translate(-82.64 -434.04)"/><path class="cls-1" d="M358.24,579.9a5.75,5.75,0,1,0-5.75-5.74A5.74,5.74,0,0,0,358.24,579.9Z" transform="translate(-82.64 -434.04)"/><path class="cls-1" d="M391.64,579.9a5.75,5.75,0,1,0-5.74-5.74A5.74,5.74,0,0,0,391.64,579.9Z" transform="translate(-82.64 -434.04)"/><path class="cls-1" d="M425.05,579.9a5.75,5.75,0,1,0-5.74-5.74A5.74,5.74,0,0,0,425.05,579.9Z" transform="translate(-82.64 -434.04)"/><path class="cls-1" d="M458.46,579.9a5.75,5.75,0,1,0-5.75-5.74A5.74,5.74,0,0,0,458.46,579.9Z" transform="translate(-82.64 -434.04)"/><path class="cls-1" d="M291.42,613.31a5.75,5.75,0,1,0-5.74-5.74A5.74,5.74,0,0,0,291.42,613.31Z" transform="translate(-82.64 -434.04)"/><path class="cls-1" d="M324.83,613.31a5.75,5.75,0,1,0-5.75-5.74A5.74,5.74,0,0,0,324.83,613.31Z" transform="translate(-82.64 -434.04)"/><path class="cls-1" d="M358.24,613.31a5.75,5.75,0,1,0-5.75-5.74A5.74,5.74,0,0,0,358.24,613.31Z" transform="translate(-82.64 -434.04)"/><path class="cls-1" d="M391.64,613.31a5.75,5.75,0,1,0-5.74-5.74A5.74,5.74,0,0,0,391.64,613.31Z" transform="translate(-82.64 -434.04)"/><path class="cls-1" d="M425.05,613.31a5.75,5.75,0,1,0-5.74-5.74A5.74,5.74,0,0,0,425.05,613.31Z" transform="translate(-82.64 -434.04)"/><path class="cls-1" d="M458.46,613.31a5.75,5.75,0,1,0-5.75-5.74A5.74,5.74,0,0,0,458.46,613.31Z" transform="translate(-82.64 -434.04)"/><path class="cls-1" d="M291.42,646.72a5.75,5.75,0,1,0-5.74-5.75A5.74,5.74,0,0,0,291.42,646.72Z" transform="translate(-82.64 -434.04)"/><path class="cls-1" d="M324.83,646.72a5.75,5.75,0,1,0-5.75-5.75A5.74,5.74,0,0,0,324.83,646.72Z" transform="translate(-82.64 -434.04)"/><path class="cls-1" d="M358.24,646.72a5.75,5.75,0,1,0-5.75-5.75A5.74,5.74,0,0,0,358.24,646.72Z" transform="translate(-82.64 -434.04)"/><path class="cls-1" d="M391.64,646.72A5.75,5.75,0,1,0,385.9,641,5.74,5.74,0,0,0,391.64,646.72Z" transform="translate(-82.64 -434.04)"/><path class="cls-1" d="M425.05,646.72a5.75,5.75,0,1,0-5.74-5.75A5.74,5.74,0,0,0,425.05,646.72Z" transform="translate(-82.64 -434.04)"/><path class="cls-1" d="M458.46,646.72a5.75,5.75,0,1,0-5.75-5.75A5.74,5.74,0,0,0,458.46,646.72Z" transform="translate(-82.64 -434.04)"/><path class="cls-1" d="M291.42,680.13a5.75,5.75,0,1,0-5.74-5.75A5.75,5.75,0,0,0,291.42,680.13Z" transform="translate(-82.64 -434.04)"/><path class="cls-1" d="M324.83,680.13a5.75,5.75,0,1,0-5.75-5.75A5.75,5.75,0,0,0,324.83,680.13Z" transform="translate(-82.64 -434.04)"/><path class="cls-1" d="M358.24,680.13a5.75,5.75,0,1,0-5.75-5.75A5.75,5.75,0,0,0,358.24,680.13Z" transform="translate(-82.64 -434.04)"/><path class="cls-1" d="M391.64,680.13a5.75,5.75,0,1,0-5.74-5.75A5.75,5.75,0,0,0,391.64,680.13Z" transform="translate(-82.64 -434.04)"/><path class="cls-1" d="M425.05,680.13a5.75,5.75,0,1,0-5.74-5.75A5.75,5.75,0,0,0,425.05,680.13Z" transform="translate(-82.64 -434.04)"/><path class="cls-1" d="M458.46,680.13a5.75,5.75,0,1,0-5.75-5.75A5.75,5.75,0,0,0,458.46,680.13Z" transform="translate(-82.64 -434.04)"/><path class="cls-1" d="M291.42,713.53a5.74,5.74,0,1,0-5.74-5.74A5.74,5.74,0,0,0,291.42,713.53Z" transform="translate(-82.64 -434.04)"/><path class="cls-1" d="M324.83,713.53a5.74,5.74,0,1,0-5.75-5.74A5.74,5.74,0,0,0,324.83,713.53Z" transform="translate(-82.64 -434.04)"/><path class="cls-1" d="M358.24,713.53a5.74,5.74,0,1,0-5.75-5.74A5.74,5.74,0,0,0,358.24,713.53Z" transform="translate(-82.64 -434.04)"/><path class="cls-1" d="M391.64,713.53a5.74,5.74,0,1,0-5.74-5.74A5.74,5.74,0,0,0,391.64,713.53Z" transform="translate(-82.64 -434.04)"/><path class="cls-1" d="M425.05,713.53a5.74,5.74,0,1,0-5.74-5.74A5.74,5.74,0,0,0,425.05,713.53Z" transform="translate(-82.64 -434.04)"/><path class="cls-1" d="M458.46,713.53a5.74,5.74,0,1,0-5.75-5.74A5.74,5.74,0,0,0,458.46,713.53Z" transform="translate(-82.64 -434.04)"/><path class="cls-1" d="M291.42,746.94a5.75,5.75,0,1,0-5.74-5.74A5.74,5.74,0,0,0,291.42,746.94Z" transform="translate(-82.64 -434.04)"/><path class="cls-1" d="M324.83,746.94a5.75,5.75,0,1,0-5.75-5.74A5.74,5.74,0,0,0,324.83,746.94Z" transform="translate(-82.64 -434.04)"/><path class="cls-1" d="M358.24,746.94a5.75,5.75,0,1,0-5.75-5.74A5.74,5.74,0,0,0,358.24,746.94Z" transform="translate(-82.64 -434.04)"/><path class="cls-1" d="M391.64,746.94a5.75,5.75,0,1,0-5.74-5.74A5.74,5.74,0,0,0,391.64,746.94Z" transform="translate(-82.64 -434.04)"/><path class="cls-1" d="M425.05,746.94a5.75,5.75,0,1,0-5.74-5.74A5.74,5.74,0,0,0,425.05,746.94Z" transform="translate(-82.64 -434.04)"/><path class="cls-1" d="M458.46,746.94a5.75,5.75,0,1,0-5.75-5.74A5.74,5.74,0,0,0,458.46,746.94Z" transform="translate(-82.64 -434.04)"/><path class="cls-1" d="M291.42,780.35a5.75,5.75,0,1,0-5.74-5.75A5.74,5.74,0,0,0,291.42,780.35Z" transform="translate(-82.64 -434.04)"/><path class="cls-1" d="M324.83,780.35a5.75,5.75,0,1,0-5.75-5.75A5.74,5.74,0,0,0,324.83,780.35Z" transform="translate(-82.64 -434.04)"/><path class="cls-1" d="M358.24,780.35a5.75,5.75,0,1,0-5.75-5.75A5.74,5.74,0,0,0,358.24,780.35Z" transform="translate(-82.64 -434.04)"/><path class="cls-1" d="M391.64,780.35a5.75,5.75,0,1,0-5.74-5.75A5.74,5.74,0,0,0,391.64,780.35Z" transform="translate(-82.64 -434.04)"/><path class="cls-1" d="M425.05,780.35a5.75,5.75,0,1,0-5.74-5.75A5.74,5.74,0,0,0,425.05,780.35Z" transform="translate(-82.64 -434.04)"/><path class="cls-1" d="M458.46,780.35a5.75,5.75,0,1,0-5.75-5.75A5.74,5.74,0,0,0,458.46,780.35Z" transform="translate(-82.64 -434.04)"/><path class="cls-1" d="M291.42,813.76a5.75,5.75,0,1,0-5.74-5.75A5.75,5.75,0,0,0,291.42,813.76Z" transform="translate(-82.64 -434.04)"/><path class="cls-1" d="M324.83,813.76a5.75,5.75,0,1,0-5.75-5.75A5.75,5.75,0,0,0,324.83,813.76Z" transform="translate(-82.64 -434.04)"/><path class="cls-1" d="M358.24,813.76a5.75,5.75,0,1,0-5.75-5.75A5.75,5.75,0,0,0,358.24,813.76Z" transform="translate(-82.64 -434.04)"/><path class="cls-1" d="M391.64,813.76A5.75,5.75,0,1,0,385.9,808,5.75,5.75,0,0,0,391.64,813.76Z" transform="translate(-82.64 -434.04)"/><path class="cls-1" d="M425.05,813.76a5.75,5.75,0,1,0-5.74-5.75A5.75,5.75,0,0,0,425.05,813.76Z" transform="translate(-82.64 -434.04)"/><path class="cls-1" d="M458.46,813.76a5.75,5.75,0,1,0-5.75-5.75A5.75,5.75,0,0,0,458.46,813.76Z" transform="translate(-82.64 -434.04)"/><path class="cls-1" d="M291.42,847.16a5.74,5.74,0,1,0-5.74-5.74A5.74,5.74,0,0,0,291.42,847.16Z" transform="translate(-82.64 -434.04)"/><path class="cls-1" d="M324.83,847.16a5.74,5.74,0,1,0-5.75-5.74A5.74,5.74,0,0,0,324.83,847.16Z" transform="translate(-82.64 -434.04)"/><path class="cls-1" d="M358.24,847.16a5.74,5.74,0,1,0-5.75-5.74A5.74,5.74,0,0,0,358.24,847.16Z" transform="translate(-82.64 -434.04)"/><path class="cls-1" d="M391.64,847.16a5.74,5.74,0,1,0-5.74-5.74A5.74,5.74,0,0,0,391.64,847.16Z" transform="translate(-82.64 -434.04)"/><path class="cls-1" d="M425.05,847.16a5.74,5.74,0,1,0-5.74-5.74A5.74,5.74,0,0,0,425.05,847.16Z" transform="translate(-82.64 -434.04)"/><path class="cls-1" d="M458.46,847.16a5.74,5.74,0,1,0-5.75-5.74A5.74,5.74,0,0,0,458.46,847.16Z" transform="translate(-82.64 -434.04)"/><path class="cls-1" d="M291.42,880.57a5.75,5.75,0,1,0-5.74-5.74A5.74,5.74,0,0,0,291.42,880.57Z" transform="translate(-82.64 -434.04)"/><path class="cls-1" d="M324.83,880.57a5.75,5.75,0,1,0-5.75-5.74A5.74,5.74,0,0,0,324.83,880.57Z" transform="translate(-82.64 -434.04)"/><path class="cls-1" d="M358.24,880.57a5.75,5.75,0,1,0-5.75-5.74A5.74,5.74,0,0,0,358.24,880.57Z" transform="translate(-82.64 -434.04)"/><path class="cls-1" d="M391.64,880.57a5.75,5.75,0,1,0-5.74-5.74A5.74,5.74,0,0,0,391.64,880.57Z" transform="translate(-82.64 -434.04)"/><path class="cls-1" d="M425.05,880.57a5.75,5.75,0,1,0-5.74-5.74A5.74,5.74,0,0,0,425.05,880.57Z" transform="translate(-82.64 -434.04)"/><path class="cls-1" d="M458.46,880.57a5.75,5.75,0,1,0-5.75-5.74A5.74,5.74,0,0,0,458.46,880.57Z" transform="translate(-82.64 -434.04)"/><path class="cls-1" d="M291.42,914a5.75,5.75,0,1,0-5.74-5.75A5.74,5.74,0,0,0,291.42,914Z" transform="translate(-82.64 -434.04)"/><path class="cls-1" d="M324.83,914a5.75,5.75,0,1,0-5.75-5.75A5.74,5.74,0,0,0,324.83,914Z" transform="translate(-82.64 -434.04)"/><path class="cls-1" d="M358.24,914a5.75,5.75,0,1,0-5.75-5.75A5.74,5.74,0,0,0,358.24,914Z" transform="translate(-82.64 -434.04)"/><path class="cls-1" d="M391.64,914a5.75,5.75,0,1,0-5.74-5.75A5.74,5.74,0,0,0,391.64,914Z" transform="translate(-82.64 -434.04)"/><path class="cls-1" d="M425.05,914a5.75,5.75,0,1,0-5.74-5.75A5.74,5.74,0,0,0,425.05,914Z" transform="translate(-82.64 -434.04)"/><path class="cls-1" d="M458.46,914a5.75,5.75,0,1,0-5.75-5.75A5.74,5.74,0,0,0,458.46,914Z" transform="translate(-82.64 -434.04)"/><path class="cls-1" d="M291.42,947.39a5.75,5.75,0,1,0-5.74-5.75A5.75,5.75,0,0,0,291.42,947.39Z" transform="translate(-82.64 -434.04)"/><path class="cls-1" d="M324.83,947.39a5.75,5.75,0,1,0-5.75-5.75A5.75,5.75,0,0,0,324.83,947.39Z" transform="translate(-82.64 -434.04)"/><path class="cls-1" d="M358.24,947.39a5.75,5.75,0,1,0-5.75-5.75A5.75,5.75,0,0,0,358.24,947.39Z" transform="translate(-82.64 -434.04)"/><path class="cls-1" d="M391.64,947.39a5.75,5.75,0,1,0-5.74-5.75A5.75,5.75,0,0,0,391.64,947.39Z" transform="translate(-82.64 -434.04)"/><path class="cls-1" d="M425.05,947.39a5.75,5.75,0,1,0-5.74-5.75A5.75,5.75,0,0,0,425.05,947.39Z" transform="translate(-82.64 -434.04)"/><path class="cls-1" d="M458.46,947.39a5.75,5.75,0,1,0-5.75-5.75A5.75,5.75,0,0,0,458.46,947.39Z" transform="translate(-82.64 -434.04)"/><path class="cls-1" d="M291.42,980.79a5.74,5.74,0,1,0-5.74-5.74A5.74,5.74,0,0,0,291.42,980.79Z" transform="translate(-82.64 -434.04)"/><path class="cls-1" d="M324.83,980.79a5.74,5.74,0,1,0-5.75-5.74A5.74,5.74,0,0,0,324.83,980.79Z" transform="translate(-82.64 -434.04)"/><path class="cls-1" d="M358.24,980.79a5.74,5.74,0,1,0-5.75-5.74A5.74,5.74,0,0,0,358.24,980.79Z" transform="translate(-82.64 -434.04)"/><path class="cls-1" d="M391.64,980.79a5.74,5.74,0,1,0-5.74-5.74A5.74,5.74,0,0,0,391.64,980.79Z" transform="translate(-82.64 -434.04)"/><path class="cls-1" d="M425.05,980.79a5.74,5.74,0,1,0-5.74-5.74A5.74,5.74,0,0,0,425.05,980.79Z" transform="translate(-82.64 -434.04)"/><path class="cls-1" d="M458.46,980.79a5.74,5.74,0,1,0-5.75-5.74A5.74,5.74,0,0,0,458.46,980.79Z" transform="translate(-82.64 -434.04)"/><path class="cls-1" d="M291.42,1014.2a5.75,5.75,0,1,0-5.74-5.74A5.74,5.74,0,0,0,291.42,1014.2Z" transform="translate(-82.64 -434.04)"/><path class="cls-1" d="M324.83,1014.2a5.75,5.75,0,1,0-5.75-5.74A5.74,5.74,0,0,0,324.83,1014.2Z" transform="translate(-82.64 -434.04)"/><path class="cls-1" d="M358.24,1014.2a5.75,5.75,0,1,0-5.75-5.74A5.74,5.74,0,0,0,358.24,1014.2Z" transform="translate(-82.64 -434.04)"/><path class="cls-1" d="M391.64,1014.2a5.75,5.75,0,1,0-5.74-5.74A5.74,5.74,0,0,0,391.64,1014.2Z" transform="translate(-82.64 -434.04)"/><path class="cls-1" d="M425.05,1014.2a5.75,5.75,0,1,0-5.74-5.74A5.74,5.74,0,0,0,425.05,1014.2Z" transform="translate(-82.64 -434.04)"/><path class="cls-1" d="M458.46,1014.2a5.75,5.75,0,1,0-5.75-5.74A5.74,5.74,0,0,0,458.46,1014.2Z" transform="translate(-82.64 -434.04)"/><path class="cls-1" d="M291.42,1047.61a5.75,5.75,0,1,0-5.74-5.74A5.74,5.74,0,0,0,291.42,1047.61Z" transform="translate(-82.64 -434.04)"/><path class="cls-1" d="M324.83,1047.61a5.75,5.75,0,1,0-5.75-5.74A5.74,5.74,0,0,0,324.83,1047.61Z" transform="translate(-82.64 -434.04)"/><path class="cls-1" d="M358.24,1047.61a5.75,5.75,0,1,0-5.75-5.74A5.74,5.74,0,0,0,358.24,1047.61Z" transform="translate(-82.64 -434.04)"/><path class="cls-1" d="M391.64,1047.61a5.75,5.75,0,1,0-5.74-5.74A5.74,5.74,0,0,0,391.64,1047.61Z" transform="translate(-82.64 -434.04)"/><path class="cls-1" d="M425.05,1047.61a5.75,5.75,0,1,0-5.74-5.74A5.74,5.74,0,0,0,425.05,1047.61Z" transform="translate(-82.64 -434.04)"/><path class="cls-1" d="M458.46,1047.61a5.75,5.75,0,1,0-5.75-5.74A5.74,5.74,0,0,0,458.46,1047.61Z" transform="translate(-82.64 -434.04)"/><path class="cls-1" d="M291.42,1081a5.75,5.75,0,1,0-5.74-5.75A5.74,5.74,0,0,0,291.42,1081Z" transform="translate(-82.64 -434.04)"/><path class="cls-1" d="M324.83,1081a5.75,5.75,0,1,0-5.75-5.75A5.74,5.74,0,0,0,324.83,1081Z" transform="translate(-82.64 -434.04)"/><path class="cls-1" d="M358.24,1081a5.75,5.75,0,1,0-5.75-5.75A5.74,5.74,0,0,0,358.24,1081Z" transform="translate(-82.64 -434.04)"/><path class="cls-1" d="M391.64,1081a5.75,5.75,0,1,0-5.74-5.75A5.74,5.74,0,0,0,391.64,1081Z" transform="translate(-82.64 -434.04)"/><path class="cls-1" d="M425.05,1081a5.75,5.75,0,1,0-5.74-5.75A5.74,5.74,0,0,0,425.05,1081Z" transform="translate(-82.64 -434.04)"/><path class="cls-1" d="M458.46,1081a5.75,5.75,0,1,0-5.75-5.75A5.74,5.74,0,0,0,458.46,1081Z" transform="translate(-82.64 -434.04)"/><path class="cls-1" d="M291.42,1114.42a5.74,5.74,0,1,0-5.74-5.74A5.74,5.74,0,0,0,291.42,1114.42Z" transform="translate(-82.64 -434.04)"/><path class="cls-1" d="M324.83,1114.42a5.74,5.74,0,1,0-5.75-5.74A5.74,5.74,0,0,0,324.83,1114.42Z" transform="translate(-82.64 -434.04)"/><path class="cls-1" d="M358.24,1114.42a5.74,5.74,0,1,0-5.75-5.74A5.74,5.74,0,0,0,358.24,1114.42Z" transform="translate(-82.64 -434.04)"/><path class="cls-1" d="M391.64,1114.42a5.74,5.74,0,1,0-5.74-5.74A5.74,5.74,0,0,0,391.64,1114.42Z" transform="translate(-82.64 -434.04)"/><path class="cls-1" d="M425.05,1114.42a5.74,5.74,0,1,0-5.74-5.74A5.74,5.74,0,0,0,425.05,1114.42Z" transform="translate(-82.64 -434.04)"/><path class="cls-1" d="M458.46,1114.42a5.74,5.74,0,1,0-5.75-5.74A5.74,5.74,0,0,0,458.46,1114.42Z" transform="translate(-82.64 -434.04)"/><path class="cls-1" d="M291.42,1147.83a5.74,5.74,0,1,0-5.74-5.74A5.74,5.74,0,0,0,291.42,1147.83Z" transform="translate(-82.64 -434.04)"/><path class="cls-1" d="M324.83,1147.83a5.74,5.74,0,1,0-5.75-5.74A5.74,5.74,0,0,0,324.83,1147.83Z" transform="translate(-82.64 -434.04)"/><path class="cls-1" d="M358.24,1147.83a5.74,5.74,0,1,0-5.75-5.74A5.74,5.74,0,0,0,358.24,1147.83Z" transform="translate(-82.64 -434.04)"/><path class="cls-1" d="M391.64,1147.83a5.74,5.74,0,1,0-5.74-5.74A5.74,5.74,0,0,0,391.64,1147.83Z" transform="translate(-82.64 -434.04)"/><path class="cls-1" d="M425.05,1147.83a5.74,5.74,0,1,0-5.74-5.74A5.74,5.74,0,0,0,425.05,1147.83Z" transform="translate(-82.64 -434.04)"/><path class="cls-1" d="M458.46,1147.83a5.74,5.74,0,1,0-5.75-5.74A5.74,5.74,0,0,0,458.46,1147.83Z" transform="translate(-82.64 -434.04)"/><path class="cls-1" d="M291.42,1181.24a5.75,5.75,0,1,0-5.74-5.74A5.74,5.74,0,0,0,291.42,1181.24Z" transform="translate(-82.64 -434.04)"/><path class="cls-1" d="M324.83,1181.24a5.75,5.75,0,1,0-5.75-5.74A5.74,5.74,0,0,0,324.83,1181.24Z" transform="translate(-82.64 -434.04)"/><path class="cls-1" d="M358.24,1181.24a5.75,5.75,0,1,0-5.75-5.74A5.74,5.74,0,0,0,358.24,1181.24Z" transform="translate(-82.64 -434.04)"/><path class="cls-1" d="M391.64,1181.24a5.75,5.75,0,1,0-5.74-5.74A5.74,5.74,0,0,0,391.64,1181.24Z" transform="translate(-82.64 -434.04)"/><path class="cls-1" d="M425.05,1181.24a5.75,5.75,0,1,0-5.74-5.74A5.74,5.74,0,0,0,425.05,1181.24Z" transform="translate(-82.64 -434.04)"/><path class="cls-1" d="M458.46,1181.24a5.75,5.75,0,1,0-5.75-5.74A5.74,5.74,0,0,0,458.46,1181.24Z" transform="translate(-82.64 -434.04)"/><path class="cls-1" d="M291.42,1214.65a5.75,5.75,0,1,0-5.74-5.75A5.74,5.74,0,0,0,291.42,1214.65Z" transform="translate(-82.64 -434.04)"/><path class="cls-1" d="M324.83,1214.65a5.75,5.75,0,1,0-5.75-5.75A5.74,5.74,0,0,0,324.83,1214.65Z" transform="translate(-82.64 -434.04)"/><path class="cls-1" d="M358.24,1214.65a5.75,5.75,0,1,0-5.75-5.75A5.74,5.74,0,0,0,358.24,1214.65Z" transform="translate(-82.64 -434.04)"/><path class="cls-1" d="M391.64,1214.65a5.75,5.75,0,1,0-5.74-5.75A5.74,5.74,0,0,0,391.64,1214.65Z" transform="translate(-82.64 -434.04)"/><path class="cls-1" d="M425.05,1214.65a5.75,5.75,0,1,0-5.74-5.75A5.74,5.74,0,0,0,425.05,1214.65Z" transform="translate(-82.64 -434.04)"/><path class="cls-1" d="M458.46,1214.65a5.75,5.75,0,1,0-5.75-5.75A5.74,5.74,0,0,0,458.46,1214.65Z" transform="translate(-82.64 -434.04)"/><path class="cls-1" d="M291.42,1248.06a5.75,5.75,0,1,0-5.74-5.75A5.75,5.75,0,0,0,291.42,1248.06Z" transform="translate(-82.64 -434.04)"/><path class="cls-1" d="M324.83,1248.06a5.75,5.75,0,1,0-5.75-5.75A5.75,5.75,0,0,0,324.83,1248.06Z" transform="translate(-82.64 -434.04)"/><path class="cls-1" d="M358.24,1248.06a5.75,5.75,0,1,0-5.75-5.75A5.75,5.75,0,0,0,358.24,1248.06Z" transform="translate(-82.64 -434.04)"/><path class="cls-1" d="M391.64,1248.06a5.75,5.75,0,1,0-5.74-5.75A5.75,5.75,0,0,0,391.64,1248.06Z" transform="translate(-82.64 -434.04)"/><path class="cls-1" d="M425.05,1248.06a5.75,5.75,0,1,0-5.74-5.75A5.75,5.75,0,0,0,425.05,1248.06Z" transform="translate(-82.64 -434.04)"/><path class="cls-1" d="M458.46,1248.06a5.75,5.75,0,1,0-5.75-5.75A5.75,5.75,0,0,0,458.46,1248.06Z" transform="translate(-82.64 -434.04)"/><path class="cls-1" d="M291.42,1281.46a5.74,5.74,0,1,0-5.74-5.74A5.74,5.74,0,0,0,291.42,1281.46Z" transform="translate(-82.64 -434.04)"/><path class="cls-1" d="M324.83,1281.46a5.74,5.74,0,1,0-5.75-5.74A5.74,5.74,0,0,0,324.83,1281.46Z" transform="translate(-82.64 -434.04)"/><path class="cls-1" d="M358.24,1281.46a5.74,5.74,0,1,0-5.75-5.74A5.74,5.74,0,0,0,358.24,1281.46Z" transform="translate(-82.64 -434.04)"/><path class="cls-1" d="M391.64,1281.46a5.74,5.74,0,1,0-5.74-5.74A5.74,5.74,0,0,0,391.64,1281.46Z" transform="translate(-82.64 -434.04)"/><path class="cls-1" d="M425.05,1281.46a5.74,5.74,0,1,0-5.74-5.74A5.74,5.74,0,0,0,425.05,1281.46Z" transform="translate(-82.64 -434.04)"/><path class="cls-1" d="M458.46,1281.46a5.74,5.74,0,1,0-5.75-5.74A5.74,5.74,0,0,0,458.46,1281.46Z" transform="translate(-82.64 -434.04)"/><path class="cls-1" d="M291.42,1314.87a5.75,5.75,0,1,0-5.74-5.74A5.74,5.74,0,0,0,291.42,1314.87Z" transform="translate(-82.64 -434.04)"/><path class="cls-1" d="M324.83,1314.87a5.75,5.75,0,1,0-5.75-5.74A5.74,5.74,0,0,0,324.83,1314.87Z" transform="translate(-82.64 -434.04)"/><path class="cls-1" d="M358.24,1314.87a5.75,5.75,0,1,0-5.75-5.74A5.74,5.74,0,0,0,358.24,1314.87Z" transform="translate(-82.64 -434.04)"/><path class="cls-1" d="M391.64,1314.87a5.75,5.75,0,1,0-5.74-5.74A5.74,5.74,0,0,0,391.64,1314.87Z" transform="translate(-82.64 -434.04)"/><path class="cls-1" d="M425.05,1314.87a5.75,5.75,0,1,0-5.74-5.74A5.74,5.74,0,0,0,425.05,1314.87Z" transform="translate(-82.64 -434.04)"/><path class="cls-1" d="M458.46,1314.87a5.75,5.75,0,1,0-5.75-5.74A5.74,5.74,0,0,0,458.46,1314.87Z" transform="translate(-82.64 -434.04)"/><path class="cls-1" d="M291.42,1348.28a5.75,5.75,0,1,0-5.74-5.75A5.74,5.74,0,0,0,291.42,1348.28Z" transform="translate(-82.64 -434.04)"/><path class="cls-1" d="M324.83,1348.28a5.75,5.75,0,1,0-5.75-5.75A5.74,5.74,0,0,0,324.83,1348.28Z" transform="translate(-82.64 -434.04)"/><path class="cls-1" d="M358.24,1348.28a5.75,5.75,0,1,0-5.75-5.75A5.74,5.74,0,0,0,358.24,1348.28Z" transform="translate(-82.64 -434.04)"/><path class="cls-1" d="M391.64,1348.28a5.75,5.75,0,1,0-5.74-5.75A5.74,5.74,0,0,0,391.64,1348.28Z" transform="translate(-82.64 -434.04)"/><path class="cls-1" d="M425.05,1348.28a5.75,5.75,0,1,0-5.74-5.75A5.74,5.74,0,0,0,425.05,1348.28Z" transform="translate(-82.64 -434.04)"/><path class="cls-1" d="M458.46,1348.28a5.75,5.75,0,1,0-5.75-5.75A5.74,5.74,0,0,0,458.46,1348.28Z" transform="translate(-82.64 -434.04)"/><path class="cls-1" d="M291.42,1381.69a5.75,5.75,0,1,0-5.74-5.75A5.75,5.75,0,0,0,291.42,1381.69Z" transform="translate(-82.64 -434.04)"/><path class="cls-1" d="M324.83,1381.69a5.75,5.75,0,1,0-5.75-5.75A5.75,5.75,0,0,0,324.83,1381.69Z" transform="translate(-82.64 -434.04)"/><path class="cls-1" d="M358.24,1381.69a5.75,5.75,0,1,0-5.75-5.75A5.75,5.75,0,0,0,358.24,1381.69Z" transform="translate(-82.64 -434.04)"/><path class="cls-1" d="M391.64,1381.69a5.75,5.75,0,1,0-5.74-5.75A5.75,5.75,0,0,0,391.64,1381.69Z" transform="translate(-82.64 -434.04)"/><path class="cls-1" d="M425.05,1381.69a5.75,5.75,0,1,0-5.74-5.75A5.75,5.75,0,0,0,425.05,1381.69Z" transform="translate(-82.64 -434.04)"/><path class="cls-1" d="M458.46,1381.69a5.75,5.75,0,1,0-5.75-5.75A5.75,5.75,0,0,0,458.46,1381.69Z" transform="translate(-82.64 -434.04)"/><path class="cls-1" d="M291.42,1415.09a5.74,5.74,0,1,0-5.74-5.74A5.74,5.74,0,0,0,291.42,1415.09Z" transform="translate(-82.64 -434.04)"/><path class="cls-1" d="M324.83,1415.09a5.74,5.74,0,1,0-5.75-5.74A5.74,5.74,0,0,0,324.83,1415.09Z" transform="translate(-82.64 -434.04)"/><path class="cls-1" d="M358.24,1415.09a5.74,5.74,0,1,0-5.75-5.74A5.74,5.74,0,0,0,358.24,1415.09Z" transform="translate(-82.64 -434.04)"/><path class="cls-1" d="M391.64,1415.09a5.74,5.74,0,1,0-5.74-5.74A5.74,5.74,0,0,0,391.64,1415.09Z" transform="translate(-82.64 -434.04)"/><path class="cls-1" d="M425.05,1415.09a5.74,5.74,0,1,0-5.74-5.74A5.74,5.74,0,0,0,425.05,1415.09Z" transform="translate(-82.64 -434.04)"/><path class="cls-1" d="M458.46,1415.09a5.74,5.74,0,1,0-5.75-5.74A5.74,5.74,0,0,0,458.46,1415.09Z" transform="translate(-82.64 -434.04)"/><path class="cls-1" d="M291.42,1448.5a5.75,5.75,0,1,0-5.74-5.74A5.74,5.74,0,0,0,291.42,1448.5Z" transform="translate(-82.64 -434.04)"/><path class="cls-1" d="M324.83,1448.5a5.75,5.75,0,1,0-5.75-5.74A5.74,5.74,0,0,0,324.83,1448.5Z" transform="translate(-82.64 -434.04)"/><path class="cls-1" d="M358.24,1448.5a5.75,5.75,0,1,0-5.75-5.74A5.74,5.74,0,0,0,358.24,1448.5Z" transform="translate(-82.64 -434.04)"/><path class="cls-1" d="M391.64,1448.5a5.75,5.75,0,1,0-5.74-5.74A5.74,5.74,0,0,0,391.64,1448.5Z" transform="translate(-82.64 -434.04)"/><path class="cls-1" d="M425.05,1448.5a5.75,5.75,0,1,0-5.74-5.74A5.74,5.74,0,0,0,425.05,1448.5Z" transform="translate(-82.64 -434.04)"/><path class="cls-1" d="M458.46,1448.5a5.75,5.75,0,1,0-5.75-5.74A5.74,5.74,0,0,0,458.46,1448.5Z" transform="translate(-82.64 -434.04)"/><path class="cls-1" d="M491,446.27a5.75,5.75,0,1,0-5.74-5.74A5.74,5.74,0,0,0,491,446.27Z" transform="translate(-82.64 -434.04)"/><path class="cls-1" d="M524.42,446.27a5.75,5.75,0,1,0-5.75-5.74A5.74,5.74,0,0,0,524.42,446.27Z" transform="translate(-82.64 -434.04)"/><path class="cls-1" d="M557.83,446.27a5.75,5.75,0,1,0-5.75-5.74A5.74,5.74,0,0,0,557.83,446.27Z" transform="translate(-82.64 -434.04)"/><path class="cls-1" d="M591.23,446.27a5.75,5.75,0,1,0-5.74-5.74A5.74,5.74,0,0,0,591.23,446.27Z" transform="translate(-82.64 -434.04)"/><path class="cls-1" d="M624.64,446.27a5.75,5.75,0,1,0-5.74-5.74A5.75,5.75,0,0,0,624.64,446.27Z" transform="translate(-82.64 -434.04)"/><path class="cls-1" d="M658.05,446.27a5.75,5.75,0,1,0-5.74-5.74A5.74,5.74,0,0,0,658.05,446.27Z" transform="translate(-82.64 -434.04)"/><path class="cls-1" d="M491,479.68a5.75,5.75,0,1,0-5.74-5.74A5.74,5.74,0,0,0,491,479.68Z" transform="translate(-82.64 -434.04)"/><path class="cls-1" d="M524.42,479.68a5.75,5.75,0,1,0-5.75-5.74A5.74,5.74,0,0,0,524.42,479.68Z" transform="translate(-82.64 -434.04)"/><path class="cls-1" d="M557.83,479.68a5.75,5.75,0,1,0-5.75-5.74A5.74,5.74,0,0,0,557.83,479.68Z" transform="translate(-82.64 -434.04)"/><path class="cls-1" d="M591.23,479.68a5.75,5.75,0,1,0-5.74-5.74A5.74,5.74,0,0,0,591.23,479.68Z" transform="translate(-82.64 -434.04)"/><path class="cls-1" d="M624.64,479.68a5.75,5.75,0,1,0-5.74-5.74A5.75,5.75,0,0,0,624.64,479.68Z" transform="translate(-82.64 -434.04)"/><path class="cls-1" d="M658.05,479.68a5.75,5.75,0,1,0-5.74-5.74A5.74,5.74,0,0,0,658.05,479.68Z" transform="translate(-82.64 -434.04)"/><path class="cls-1" d="M491,513.09a5.75,5.75,0,1,0-5.74-5.75A5.74,5.74,0,0,0,491,513.09Z" transform="translate(-82.64 -434.04)"/><path class="cls-1" d="M524.42,513.09a5.75,5.75,0,1,0-5.75-5.75A5.74,5.74,0,0,0,524.42,513.09Z" transform="translate(-82.64 -434.04)"/><path class="cls-1" d="M557.83,513.09a5.75,5.75,0,1,0-5.75-5.75A5.74,5.74,0,0,0,557.83,513.09Z" transform="translate(-82.64 -434.04)"/><path class="cls-1" d="M591.23,513.09a5.75,5.75,0,1,0-5.74-5.75A5.74,5.74,0,0,0,591.23,513.09Z" transform="translate(-82.64 -434.04)"/><path class="cls-1" d="M624.64,513.09a5.75,5.75,0,1,0-5.74-5.75A5.75,5.75,0,0,0,624.64,513.09Z" transform="translate(-82.64 -434.04)"/><path class="cls-1" d="M658.05,513.09a5.75,5.75,0,1,0-5.74-5.75A5.74,5.74,0,0,0,658.05,513.09Z" transform="translate(-82.64 -434.04)"/><path class="cls-1" d="M491,546.49a5.74,5.74,0,1,0-5.74-5.74A5.74,5.74,0,0,0,491,546.49Z" transform="translate(-82.64 -434.04)"/><path class="cls-1" d="M524.42,546.49a5.74,5.74,0,1,0-5.75-5.74A5.74,5.74,0,0,0,524.42,546.49Z" transform="translate(-82.64 -434.04)"/><path class="cls-1" d="M557.83,546.49a5.74,5.74,0,1,0-5.75-5.74A5.74,5.74,0,0,0,557.83,546.49Z" transform="translate(-82.64 -434.04)"/><path class="cls-1" d="M591.23,546.49a5.74,5.74,0,1,0-5.74-5.74A5.74,5.74,0,0,0,591.23,546.49Z" transform="translate(-82.64 -434.04)"/><path class="cls-1" d="M624.64,546.49a5.74,5.74,0,1,0-5.74-5.74A5.75,5.75,0,0,0,624.64,546.49Z" transform="translate(-82.64 -434.04)"/><path class="cls-1" d="M658.05,546.49a5.74,5.74,0,1,0-5.74-5.74A5.74,5.74,0,0,0,658.05,546.49Z" transform="translate(-82.64 -434.04)"/><path class="cls-1" d="M491,579.9a5.75,5.75,0,1,0-5.74-5.74A5.74,5.74,0,0,0,491,579.9Z" transform="translate(-82.64 -434.04)"/><path class="cls-1" d="M524.42,579.9a5.75,5.75,0,1,0-5.75-5.74A5.74,5.74,0,0,0,524.42,579.9Z" transform="translate(-82.64 -434.04)"/><path class="cls-1" d="M557.83,579.9a5.75,5.75,0,1,0-5.75-5.74A5.74,5.74,0,0,0,557.83,579.9Z" transform="translate(-82.64 -434.04)"/><path class="cls-1" d="M591.23,579.9a5.75,5.75,0,1,0-5.74-5.74A5.74,5.74,0,0,0,591.23,579.9Z" transform="translate(-82.64 -434.04)"/><path class="cls-1" d="M624.64,579.9a5.75,5.75,0,1,0-5.74-5.74A5.75,5.75,0,0,0,624.64,579.9Z" transform="translate(-82.64 -434.04)"/><path class="cls-1" d="M658.05,579.9a5.75,5.75,0,1,0-5.74-5.74A5.74,5.74,0,0,0,658.05,579.9Z" transform="translate(-82.64 -434.04)"/><path class="cls-1" d="M491,613.31a5.75,5.75,0,1,0-5.74-5.74A5.74,5.74,0,0,0,491,613.31Z" transform="translate(-82.64 -434.04)"/><path class="cls-1" d="M524.42,613.31a5.75,5.75,0,1,0-5.75-5.74A5.74,5.74,0,0,0,524.42,613.31Z" transform="translate(-82.64 -434.04)"/><path class="cls-1" d="M557.83,613.31a5.75,5.75,0,1,0-5.75-5.74A5.74,5.74,0,0,0,557.83,613.31Z" transform="translate(-82.64 -434.04)"/><path class="cls-1" d="M591.23,613.31a5.75,5.75,0,1,0-5.74-5.74A5.74,5.74,0,0,0,591.23,613.31Z" transform="translate(-82.64 -434.04)"/><path class="cls-1" d="M624.64,613.31a5.75,5.75,0,1,0-5.74-5.74A5.75,5.75,0,0,0,624.64,613.31Z" transform="translate(-82.64 -434.04)"/><path class="cls-1" d="M658.05,613.31a5.75,5.75,0,1,0-5.74-5.74A5.74,5.74,0,0,0,658.05,613.31Z" transform="translate(-82.64 -434.04)"/><path class="cls-1" d="M491,646.72a5.75,5.75,0,1,0-5.74-5.75A5.74,5.74,0,0,0,491,646.72Z" transform="translate(-82.64 -434.04)"/><path class="cls-1" d="M524.42,646.72a5.75,5.75,0,1,0-5.75-5.75A5.74,5.74,0,0,0,524.42,646.72Z" transform="translate(-82.64 -434.04)"/><path class="cls-1" d="M557.83,646.72a5.75,5.75,0,1,0-5.75-5.75A5.74,5.74,0,0,0,557.83,646.72Z" transform="translate(-82.64 -434.04)"/><path class="cls-1" d="M591.23,646.72a5.75,5.75,0,1,0-5.74-5.75A5.74,5.74,0,0,0,591.23,646.72Z" transform="translate(-82.64 -434.04)"/><path class="cls-1" d="M624.64,646.72A5.75,5.75,0,1,0,618.9,641,5.75,5.75,0,0,0,624.64,646.72Z" transform="translate(-82.64 -434.04)"/><path class="cls-1" d="M658.05,646.72a5.75,5.75,0,1,0-5.74-5.75A5.74,5.74,0,0,0,658.05,646.72Z" transform="translate(-82.64 -434.04)"/><path class="cls-1" d="M491,680.13a5.75,5.75,0,1,0-5.74-5.75A5.75,5.75,0,0,0,491,680.13Z" transform="translate(-82.64 -434.04)"/><path class="cls-1" d="M524.42,680.13a5.75,5.75,0,1,0-5.75-5.75A5.75,5.75,0,0,0,524.42,680.13Z" transform="translate(-82.64 -434.04)"/><path class="cls-1" d="M557.83,680.13a5.75,5.75,0,1,0-5.75-5.75A5.75,5.75,0,0,0,557.83,680.13Z" transform="translate(-82.64 -434.04)"/><path class="cls-1" d="M591.23,680.13a5.75,5.75,0,1,0-5.74-5.75A5.75,5.75,0,0,0,591.23,680.13Z" transform="translate(-82.64 -434.04)"/><path class="cls-1" d="M624.64,680.13a5.75,5.75,0,1,0-5.74-5.75A5.76,5.76,0,0,0,624.64,680.13Z" transform="translate(-82.64 -434.04)"/><path class="cls-1" d="M658.05,680.13a5.75,5.75,0,1,0-5.74-5.75A5.75,5.75,0,0,0,658.05,680.13Z" transform="translate(-82.64 -434.04)"/><path class="cls-1" d="M491,713.53a5.74,5.74,0,1,0-5.74-5.74A5.74,5.74,0,0,0,491,713.53Z" transform="translate(-82.64 -434.04)"/><path class="cls-1" d="M524.42,713.53a5.74,5.74,0,1,0-5.75-5.74A5.74,5.74,0,0,0,524.42,713.53Z" transform="translate(-82.64 -434.04)"/><path class="cls-1" d="M557.83,713.53a5.74,5.74,0,1,0-5.75-5.74A5.74,5.74,0,0,0,557.83,713.53Z" transform="translate(-82.64 -434.04)"/><path class="cls-1" d="M591.23,713.53a5.74,5.74,0,1,0-5.74-5.74A5.74,5.74,0,0,0,591.23,713.53Z" transform="translate(-82.64 -434.04)"/><path class="cls-1" d="M624.64,713.53a5.74,5.74,0,1,0-5.74-5.74A5.75,5.75,0,0,0,624.64,713.53Z" transform="translate(-82.64 -434.04)"/><path class="cls-1" d="M658.05,713.53a5.74,5.74,0,1,0-5.74-5.74A5.74,5.74,0,0,0,658.05,713.53Z" transform="translate(-82.64 -434.04)"/><path class="cls-1" d="M491,746.94a5.75,5.75,0,1,0-5.74-5.74A5.74,5.74,0,0,0,491,746.94Z" transform="translate(-82.64 -434.04)"/><path class="cls-1" d="M524.42,746.94a5.75,5.75,0,1,0-5.75-5.74A5.74,5.74,0,0,0,524.42,746.94Z" transform="translate(-82.64 -434.04)"/><path class="cls-1" d="M557.83,746.94a5.75,5.75,0,1,0-5.75-5.74A5.74,5.74,0,0,0,557.83,746.94Z" transform="translate(-82.64 -434.04)"/><path class="cls-1" d="M591.23,746.94a5.75,5.75,0,1,0-5.74-5.74A5.74,5.74,0,0,0,591.23,746.94Z" transform="translate(-82.64 -434.04)"/><path class="cls-1" d="M624.64,746.94a5.75,5.75,0,1,0-5.74-5.74A5.75,5.75,0,0,0,624.64,746.94Z" transform="translate(-82.64 -434.04)"/><path class="cls-1" d="M658.05,746.94a5.75,5.75,0,1,0-5.74-5.74A5.74,5.74,0,0,0,658.05,746.94Z" transform="translate(-82.64 -434.04)"/><path class="cls-1" d="M491,780.35a5.75,5.75,0,1,0-5.74-5.75A5.74,5.74,0,0,0,491,780.35Z" transform="translate(-82.64 -434.04)"/><path class="cls-1" d="M524.42,780.35a5.75,5.75,0,1,0-5.75-5.75A5.74,5.74,0,0,0,524.42,780.35Z" transform="translate(-82.64 -434.04)"/><path class="cls-1" d="M557.83,780.35a5.75,5.75,0,1,0-5.75-5.75A5.74,5.74,0,0,0,557.83,780.35Z" transform="translate(-82.64 -434.04)"/><path class="cls-1" d="M591.23,780.35a5.75,5.75,0,1,0-5.74-5.75A5.74,5.74,0,0,0,591.23,780.35Z" transform="translate(-82.64 -434.04)"/><path class="cls-1" d="M624.64,780.35a5.75,5.75,0,1,0-5.74-5.75A5.75,5.75,0,0,0,624.64,780.35Z" transform="translate(-82.64 -434.04)"/><path class="cls-1" d="M658.05,780.35a5.75,5.75,0,1,0-5.74-5.75A5.74,5.74,0,0,0,658.05,780.35Z" transform="translate(-82.64 -434.04)"/><path class="cls-1" d="M491,813.76a5.75,5.75,0,1,0-5.74-5.75A5.75,5.75,0,0,0,491,813.76Z" transform="translate(-82.64 -434.04)"/><path class="cls-1" d="M524.42,813.76a5.75,5.75,0,1,0-5.75-5.75A5.75,5.75,0,0,0,524.42,813.76Z" transform="translate(-82.64 -434.04)"/><path class="cls-1" d="M557.83,813.76a5.75,5.75,0,1,0-5.75-5.75A5.75,5.75,0,0,0,557.83,813.76Z" transform="translate(-82.64 -434.04)"/><path class="cls-1" d="M591.23,813.76a5.75,5.75,0,1,0-5.74-5.75A5.75,5.75,0,0,0,591.23,813.76Z" transform="translate(-82.64 -434.04)"/><path class="cls-1" d="M624.64,813.76A5.75,5.75,0,1,0,618.9,808,5.76,5.76,0,0,0,624.64,813.76Z" transform="translate(-82.64 -434.04)"/><path class="cls-1" d="M658.05,813.76a5.75,5.75,0,1,0-5.74-5.75A5.75,5.75,0,0,0,658.05,813.76Z" transform="translate(-82.64 -434.04)"/><path class="cls-1" d="M491,847.16a5.74,5.74,0,1,0-5.74-5.74A5.74,5.74,0,0,0,491,847.16Z" transform="translate(-82.64 -434.04)"/><path class="cls-1" d="M524.42,847.16a5.74,5.74,0,1,0-5.75-5.74A5.74,5.74,0,0,0,524.42,847.16Z" transform="translate(-82.64 -434.04)"/><path class="cls-1" d="M557.83,847.16a5.74,5.74,0,1,0-5.75-5.74A5.74,5.74,0,0,0,557.83,847.16Z" transform="translate(-82.64 -434.04)"/><path class="cls-1" d="M591.23,847.16a5.74,5.74,0,1,0-5.74-5.74A5.74,5.74,0,0,0,591.23,847.16Z" transform="translate(-82.64 -434.04)"/><path class="cls-1" d="M624.64,847.16a5.74,5.74,0,1,0-5.74-5.74A5.75,5.75,0,0,0,624.64,847.16Z" transform="translate(-82.64 -434.04)"/><path class="cls-1" d="M658.05,847.16a5.74,5.74,0,1,0-5.74-5.74A5.74,5.74,0,0,0,658.05,847.16Z" transform="translate(-82.64 -434.04)"/><path class="cls-1" d="M491,880.57a5.75,5.75,0,1,0-5.74-5.74A5.74,5.74,0,0,0,491,880.57Z" transform="translate(-82.64 -434.04)"/><path class="cls-1" d="M524.42,880.57a5.75,5.75,0,1,0-5.75-5.74A5.74,5.74,0,0,0,524.42,880.57Z" transform="translate(-82.64 -434.04)"/><path class="cls-1" d="M557.83,880.57a5.75,5.75,0,1,0-5.75-5.74A5.74,5.74,0,0,0,557.83,880.57Z" transform="translate(-82.64 -434.04)"/><path class="cls-1" d="M591.23,880.57a5.75,5.75,0,1,0-5.74-5.74A5.74,5.74,0,0,0,591.23,880.57Z" transform="translate(-82.64 -434.04)"/><path class="cls-1" d="M624.64,880.57a5.75,5.75,0,1,0-5.74-5.74A5.75,5.75,0,0,0,624.64,880.57Z" transform="translate(-82.64 -434.04)"/><path class="cls-1" d="M658.05,880.57a5.75,5.75,0,1,0-5.74-5.74A5.74,5.74,0,0,0,658.05,880.57Z" transform="translate(-82.64 -434.04)"/><path class="cls-1" d="M491,914a5.75,5.75,0,1,0-5.74-5.75A5.74,5.74,0,0,0,491,914Z" transform="translate(-82.64 -434.04)"/><path class="cls-1" d="M524.42,914a5.75,5.75,0,1,0-5.75-5.75A5.74,5.74,0,0,0,524.42,914Z" transform="translate(-82.64 -434.04)"/><path class="cls-1" d="M557.83,914a5.75,5.75,0,1,0-5.75-5.75A5.74,5.74,0,0,0,557.83,914Z" transform="translate(-82.64 -434.04)"/><path class="cls-1" d="M591.23,914a5.75,5.75,0,1,0-5.74-5.75A5.74,5.74,0,0,0,591.23,914Z" transform="translate(-82.64 -434.04)"/><path class="cls-1" d="M624.64,914a5.75,5.75,0,1,0-5.74-5.75A5.75,5.75,0,0,0,624.64,914Z" transform="translate(-82.64 -434.04)"/><path class="cls-1" d="M658.05,914a5.75,5.75,0,1,0-5.74-5.75A5.74,5.74,0,0,0,658.05,914Z" transform="translate(-82.64 -434.04)"/><path class="cls-1" d="M491,947.39a5.75,5.75,0,1,0-5.74-5.75A5.75,5.75,0,0,0,491,947.39Z" transform="translate(-82.64 -434.04)"/><path class="cls-1" d="M524.42,947.39a5.75,5.75,0,1,0-5.75-5.75A5.75,5.75,0,0,0,524.42,947.39Z" transform="translate(-82.64 -434.04)"/><path class="cls-1" d="M557.83,947.39a5.75,5.75,0,1,0-5.75-5.75A5.75,5.75,0,0,0,557.83,947.39Z" transform="translate(-82.64 -434.04)"/><path class="cls-1" d="M591.23,947.39a5.75,5.75,0,1,0-5.74-5.75A5.75,5.75,0,0,0,591.23,947.39Z" transform="translate(-82.64 -434.04)"/><path class="cls-1" d="M624.64,947.39a5.75,5.75,0,1,0-5.74-5.75A5.76,5.76,0,0,0,624.64,947.39Z" transform="translate(-82.64 -434.04)"/><path class="cls-1" d="M658.05,947.39a5.75,5.75,0,1,0-5.74-5.75A5.75,5.75,0,0,0,658.05,947.39Z" transform="translate(-82.64 -434.04)"/><path class="cls-1" d="M491,980.79a5.74,5.74,0,1,0-5.74-5.74A5.74,5.74,0,0,0,491,980.79Z" transform="translate(-82.64 -434.04)"/><path class="cls-1" d="M524.42,980.79a5.74,5.74,0,1,0-5.75-5.74A5.74,5.74,0,0,0,524.42,980.79Z" transform="translate(-82.64 -434.04)"/><path class="cls-1" d="M557.83,980.79a5.74,5.74,0,1,0-5.75-5.74A5.74,5.74,0,0,0,557.83,980.79Z" transform="translate(-82.64 -434.04)"/><path class="cls-1" d="M591.23,980.79a5.74,5.74,0,1,0-5.74-5.74A5.74,5.74,0,0,0,591.23,980.79Z" transform="translate(-82.64 -434.04)"/><path class="cls-1" d="M624.64,980.79a5.74,5.74,0,1,0-5.74-5.74A5.75,5.75,0,0,0,624.64,980.79Z" transform="translate(-82.64 -434.04)"/><path class="cls-1" d="M658.05,980.79a5.74,5.74,0,1,0-5.74-5.74A5.74,5.74,0,0,0,658.05,980.79Z" transform="translate(-82.64 -434.04)"/><path class="cls-1" d="M491,1014.2a5.75,5.75,0,1,0-5.74-5.74A5.74,5.74,0,0,0,491,1014.2Z" transform="translate(-82.64 -434.04)"/><path class="cls-1" d="M524.42,1014.2a5.75,5.75,0,1,0-5.75-5.74A5.74,5.74,0,0,0,524.42,1014.2Z" transform="translate(-82.64 -434.04)"/><path class="cls-1" d="M557.83,1014.2a5.75,5.75,0,1,0-5.75-5.74A5.74,5.74,0,0,0,557.83,1014.2Z" transform="translate(-82.64 -434.04)"/><path class="cls-1" d="M591.23,1014.2a5.75,5.75,0,1,0-5.74-5.74A5.74,5.74,0,0,0,591.23,1014.2Z" transform="translate(-82.64 -434.04)"/><path class="cls-1" d="M624.64,1014.2a5.75,5.75,0,1,0-5.74-5.74A5.75,5.75,0,0,0,624.64,1014.2Z" transform="translate(-82.64 -434.04)"/><path class="cls-1" d="M658.05,1014.2a5.75,5.75,0,1,0-5.74-5.74A5.74,5.74,0,0,0,658.05,1014.2Z" transform="translate(-82.64 -434.04)"/><path class="cls-1" d="M491,1047.61a5.75,5.75,0,1,0-5.74-5.74A5.74,5.74,0,0,0,491,1047.61Z" transform="translate(-82.64 -434.04)"/><path class="cls-1" d="M524.42,1047.61a5.75,5.75,0,1,0-5.75-5.74A5.74,5.74,0,0,0,524.42,1047.61Z" transform="translate(-82.64 -434.04)"/><path class="cls-1" d="M557.83,1047.61a5.75,5.75,0,1,0-5.75-5.74A5.74,5.74,0,0,0,557.83,1047.61Z" transform="translate(-82.64 -434.04)"/><path class="cls-1" d="M591.23,1047.61a5.75,5.75,0,1,0-5.74-5.74A5.74,5.74,0,0,0,591.23,1047.61Z" transform="translate(-82.64 -434.04)"/><path class="cls-1" d="M624.64,1047.61a5.75,5.75,0,1,0-5.74-5.74A5.75,5.75,0,0,0,624.64,1047.61Z" transform="translate(-82.64 -434.04)"/><path class="cls-1" d="M658.05,1047.61a5.75,5.75,0,1,0-5.74-5.74A5.74,5.74,0,0,0,658.05,1047.61Z" transform="translate(-82.64 -434.04)"/><path class="cls-1" d="M491,1081a5.75,5.75,0,1,0-5.74-5.75A5.74,5.74,0,0,0,491,1081Z" transform="translate(-82.64 -434.04)"/><path class="cls-1" d="M524.42,1081a5.75,5.75,0,1,0-5.75-5.75A5.74,5.74,0,0,0,524.42,1081Z" transform="translate(-82.64 -434.04)"/><path class="cls-1" d="M557.83,1081a5.75,5.75,0,1,0-5.75-5.75A5.74,5.74,0,0,0,557.83,1081Z" transform="translate(-82.64 -434.04)"/><path class="cls-1" d="M591.23,1081a5.75,5.75,0,1,0-5.74-5.75A5.74,5.74,0,0,0,591.23,1081Z" transform="translate(-82.64 -434.04)"/><path class="cls-1" d="M624.64,1081a5.75,5.75,0,1,0-5.74-5.75A5.75,5.75,0,0,0,624.64,1081Z" transform="translate(-82.64 -434.04)"/><path class="cls-1" d="M658.05,1081a5.75,5.75,0,1,0-5.74-5.75A5.74,5.74,0,0,0,658.05,1081Z" transform="translate(-82.64 -434.04)"/><path class="cls-1" d="M491,1114.42a5.74,5.74,0,1,0-5.74-5.74A5.74,5.74,0,0,0,491,1114.42Z" transform="translate(-82.64 -434.04)"/><path class="cls-1" d="M524.42,1114.42a5.74,5.74,0,1,0-5.75-5.74A5.74,5.74,0,0,0,524.42,1114.42Z" transform="translate(-82.64 -434.04)"/><path class="cls-1" d="M557.83,1114.42a5.74,5.74,0,1,0-5.75-5.74A5.74,5.74,0,0,0,557.83,1114.42Z" transform="translate(-82.64 -434.04)"/><path class="cls-1" d="M591.23,1114.42a5.74,5.74,0,1,0-5.74-5.74A5.74,5.74,0,0,0,591.23,1114.42Z" transform="translate(-82.64 -434.04)"/><path class="cls-1" d="M624.64,1114.42a5.74,5.74,0,1,0-5.74-5.74A5.75,5.75,0,0,0,624.64,1114.42Z" transform="translate(-82.64 -434.04)"/><path class="cls-1" d="M658.05,1114.42a5.74,5.74,0,1,0-5.74-5.74A5.74,5.74,0,0,0,658.05,1114.42Z" transform="translate(-82.64 -434.04)"/><path class="cls-1" d="M491,1147.83a5.74,5.74,0,1,0-5.74-5.74A5.74,5.74,0,0,0,491,1147.83Z" transform="translate(-82.64 -434.04)"/><path class="cls-1" d="M524.42,1147.83a5.74,5.74,0,1,0-5.75-5.74A5.74,5.74,0,0,0,524.42,1147.83Z" transform="translate(-82.64 -434.04)"/><path class="cls-1" d="M557.83,1147.83a5.74,5.74,0,1,0-5.75-5.74A5.74,5.74,0,0,0,557.83,1147.83Z" transform="translate(-82.64 -434.04)"/><path class="cls-1" d="M591.23,1147.83a5.74,5.74,0,1,0-5.74-5.74A5.74,5.74,0,0,0,591.23,1147.83Z" transform="translate(-82.64 -434.04)"/><path class="cls-1" d="M624.64,1147.83a5.74,5.74,0,1,0-5.74-5.74A5.75,5.75,0,0,0,624.64,1147.83Z" transform="translate(-82.64 -434.04)"/><path class="cls-1" d="M658.05,1147.83a5.74,5.74,0,1,0-5.74-5.74A5.74,5.74,0,0,0,658.05,1147.83Z" transform="translate(-82.64 -434.04)"/><path class="cls-1" d="M491,1181.24a5.75,5.75,0,1,0-5.74-5.74A5.74,5.74,0,0,0,491,1181.24Z" transform="translate(-82.64 -434.04)"/><path class="cls-1" d="M524.42,1181.24a5.75,5.75,0,1,0-5.75-5.74A5.74,5.74,0,0,0,524.42,1181.24Z" transform="translate(-82.64 -434.04)"/><path class="cls-1" d="M557.83,1181.24a5.75,5.75,0,1,0-5.75-5.74A5.74,5.74,0,0,0,557.83,1181.24Z" transform="translate(-82.64 -434.04)"/><path class="cls-1" d="M591.23,1181.24a5.75,5.75,0,1,0-5.74-5.74A5.74,5.74,0,0,0,591.23,1181.24Z" transform="translate(-82.64 -434.04)"/><path class="cls-1" d="M624.64,1181.24a5.75,5.75,0,1,0-5.74-5.74A5.75,5.75,0,0,0,624.64,1181.24Z" transform="translate(-82.64 -434.04)"/><path class="cls-1" d="M658.05,1181.24a5.75,5.75,0,1,0-5.74-5.74A5.74,5.74,0,0,0,658.05,1181.24Z" transform="translate(-82.64 -434.04)"/><path class="cls-1" d="M491,1214.65a5.75,5.75,0,1,0-5.74-5.75A5.74,5.74,0,0,0,491,1214.65Z" transform="translate(-82.64 -434.04)"/><path class="cls-1" d="M524.42,1214.65a5.75,5.75,0,1,0-5.75-5.75A5.74,5.74,0,0,0,524.42,1214.65Z" transform="translate(-82.64 -434.04)"/><path class="cls-1" d="M557.83,1214.65a5.75,5.75,0,1,0-5.75-5.75A5.74,5.74,0,0,0,557.83,1214.65Z" transform="translate(-82.64 -434.04)"/><path class="cls-1" d="M591.23,1214.65a5.75,5.75,0,1,0-5.74-5.75A5.74,5.74,0,0,0,591.23,1214.65Z" transform="translate(-82.64 -434.04)"/><path class="cls-1" d="M624.64,1214.65a5.75,5.75,0,1,0-5.74-5.75A5.75,5.75,0,0,0,624.64,1214.65Z" transform="translate(-82.64 -434.04)"/><path class="cls-1" d="M658.05,1214.65a5.75,5.75,0,1,0-5.74-5.75A5.74,5.74,0,0,0,658.05,1214.65Z" transform="translate(-82.64 -434.04)"/><path class="cls-1" d="M491,1248.06a5.75,5.75,0,1,0-5.74-5.75A5.75,5.75,0,0,0,491,1248.06Z" transform="translate(-82.64 -434.04)"/><path class="cls-1" d="M524.42,1248.06a5.75,5.75,0,1,0-5.75-5.75A5.75,5.75,0,0,0,524.42,1248.06Z" transform="translate(-82.64 -434.04)"/><path class="cls-1" d="M557.83,1248.06a5.75,5.75,0,1,0-5.75-5.75A5.75,5.75,0,0,0,557.83,1248.06Z" transform="translate(-82.64 -434.04)"/><path class="cls-1" d="M591.23,1248.06a5.75,5.75,0,1,0-5.74-5.75A5.75,5.75,0,0,0,591.23,1248.06Z" transform="translate(-82.64 -434.04)"/><path class="cls-1" d="M624.64,1248.06a5.75,5.75,0,1,0-5.74-5.75A5.76,5.76,0,0,0,624.64,1248.06Z" transform="translate(-82.64 -434.04)"/><path class="cls-1" d="M658.05,1248.06a5.75,5.75,0,1,0-5.74-5.75A5.75,5.75,0,0,0,658.05,1248.06Z" transform="translate(-82.64 -434.04)"/><path class="cls-1" d="M491,1281.46a5.74,5.74,0,1,0-5.74-5.74A5.74,5.74,0,0,0,491,1281.46Z" transform="translate(-82.64 -434.04)"/><path class="cls-1" d="M524.42,1281.46a5.74,5.74,0,1,0-5.75-5.74A5.74,5.74,0,0,0,524.42,1281.46Z" transform="translate(-82.64 -434.04)"/><path class="cls-1" d="M557.83,1281.46a5.74,5.74,0,1,0-5.75-5.74A5.74,5.74,0,0,0,557.83,1281.46Z" transform="translate(-82.64 -434.04)"/><path class="cls-1" d="M591.23,1281.46a5.74,5.74,0,1,0-5.74-5.74A5.74,5.74,0,0,0,591.23,1281.46Z" transform="translate(-82.64 -434.04)"/><path class="cls-1" d="M624.64,1281.46a5.74,5.74,0,1,0-5.74-5.74A5.75,5.75,0,0,0,624.64,1281.46Z" transform="translate(-82.64 -434.04)"/><path class="cls-1" d="M658.05,1281.46a5.74,5.74,0,1,0-5.74-5.74A5.74,5.74,0,0,0,658.05,1281.46Z" transform="translate(-82.64 -434.04)"/><path class="cls-1" d="M491,1314.87a5.75,5.75,0,1,0-5.74-5.74A5.74,5.74,0,0,0,491,1314.87Z" transform="translate(-82.64 -434.04)"/><path class="cls-1" d="M524.42,1314.87a5.75,5.75,0,1,0-5.75-5.74A5.74,5.74,0,0,0,524.42,1314.87Z" transform="translate(-82.64 -434.04)"/><path class="cls-1" d="M557.83,1314.87a5.75,5.75,0,1,0-5.75-5.74A5.74,5.74,0,0,0,557.83,1314.87Z" transform="translate(-82.64 -434.04)"/><path class="cls-1" d="M591.23,1314.87a5.75,5.75,0,1,0-5.74-5.74A5.74,5.74,0,0,0,591.23,1314.87Z" transform="translate(-82.64 -434.04)"/><path class="cls-1" d="M624.64,1314.87a5.75,5.75,0,1,0-5.74-5.74A5.75,5.75,0,0,0,624.64,1314.87Z" transform="translate(-82.64 -434.04)"/><path class="cls-1" d="M658.05,1314.87a5.75,5.75,0,1,0-5.74-5.74A5.74,5.74,0,0,0,658.05,1314.87Z" transform="translate(-82.64 -434.04)"/><path class="cls-1" d="M491,1348.28a5.75,5.75,0,1,0-5.74-5.75A5.74,5.74,0,0,0,491,1348.28Z" transform="translate(-82.64 -434.04)"/><path class="cls-1" d="M524.42,1348.28a5.75,5.75,0,1,0-5.75-5.75A5.74,5.74,0,0,0,524.42,1348.28Z" transform="translate(-82.64 -434.04)"/><path class="cls-1" d="M557.83,1348.28a5.75,5.75,0,1,0-5.75-5.75A5.74,5.74,0,0,0,557.83,1348.28Z" transform="translate(-82.64 -434.04)"/><path class="cls-1" d="M591.23,1348.28a5.75,5.75,0,1,0-5.74-5.75A5.74,5.74,0,0,0,591.23,1348.28Z" transform="translate(-82.64 -434.04)"/><path class="cls-1" d="M624.64,1348.28a5.75,5.75,0,1,0-5.74-5.75A5.75,5.75,0,0,0,624.64,1348.28Z" transform="translate(-82.64 -434.04)"/><path class="cls-1" d="M658.05,1348.28a5.75,5.75,0,1,0-5.74-5.75A5.74,5.74,0,0,0,658.05,1348.28Z" transform="translate(-82.64 -434.04)"/><path class="cls-1" d="M491,1381.69a5.75,5.75,0,1,0-5.74-5.75A5.75,5.75,0,0,0,491,1381.69Z" transform="translate(-82.64 -434.04)"/><path class="cls-1" d="M524.42,1381.69a5.75,5.75,0,1,0-5.75-5.75A5.75,5.75,0,0,0,524.42,1381.69Z" transform="translate(-82.64 -434.04)"/><path class="cls-1" d="M557.83,1381.69a5.75,5.75,0,1,0-5.75-5.75A5.75,5.75,0,0,0,557.83,1381.69Z" transform="translate(-82.64 -434.04)"/><path class="cls-1" d="M591.23,1381.69a5.75,5.75,0,1,0-5.74-5.75A5.75,5.75,0,0,0,591.23,1381.69Z" transform="translate(-82.64 -434.04)"/><path class="cls-1" d="M624.64,1381.69a5.75,5.75,0,1,0-5.74-5.75A5.76,5.76,0,0,0,624.64,1381.69Z" transform="translate(-82.64 -434.04)"/><path class="cls-1" d="M658.05,1381.69a5.75,5.75,0,1,0-5.74-5.75A5.75,5.75,0,0,0,658.05,1381.69Z" transform="translate(-82.64 -434.04)"/><path class="cls-1" d="M491,1415.09a5.74,5.74,0,1,0-5.74-5.74A5.74,5.74,0,0,0,491,1415.09Z" transform="translate(-82.64 -434.04)"/><path class="cls-1" d="M524.42,1415.09a5.74,5.74,0,1,0-5.75-5.74A5.74,5.74,0,0,0,524.42,1415.09Z" transform="translate(-82.64 -434.04)"/><path class="cls-1" d="M557.83,1415.09a5.74,5.74,0,1,0-5.75-5.74A5.74,5.74,0,0,0,557.83,1415.09Z" transform="translate(-82.64 -434.04)"/><path class="cls-1" d="M591.23,1415.09a5.74,5.74,0,1,0-5.74-5.74A5.74,5.74,0,0,0,591.23,1415.09Z" transform="translate(-82.64 -434.04)"/><path class="cls-1" d="M624.64,1415.09a5.74,5.74,0,1,0-5.74-5.74A5.75,5.75,0,0,0,624.64,1415.09Z" transform="translate(-82.64 -434.04)"/><path class="cls-1" d="M658.05,1415.09a5.74,5.74,0,1,0-5.74-5.74A5.74,5.74,0,0,0,658.05,1415.09Z" transform="translate(-82.64 -434.04)"/><path class="cls-1" d="M491,1448.5a5.75,5.75,0,1,0-5.74-5.74A5.74,5.74,0,0,0,491,1448.5Z" transform="translate(-82.64 -434.04)"/><path class="cls-1" d="M524.42,1448.5a5.75,5.75,0,1,0-5.75-5.74A5.74,5.74,0,0,0,524.42,1448.5Z" transform="translate(-82.64 -434.04)"/><path class="cls-1" d="M557.83,1448.5a5.75,5.75,0,1,0-5.75-5.74A5.74,5.74,0,0,0,557.83,1448.5Z" transform="translate(-82.64 -434.04)"/><path class="cls-1" d="M591.23,1448.5a5.75,5.75,0,1,0-5.74-5.74A5.74,5.74,0,0,0,591.23,1448.5Z" transform="translate(-82.64 -434.04)"/><path class="cls-1" d="M624.64,1448.5a5.75,5.75,0,1,0-5.74-5.74A5.75,5.75,0,0,0,624.64,1448.5Z" transform="translate(-82.64 -434.04)"/><path class="cls-1" d="M658.05,1448.5a5.75,5.75,0,1,0-5.74-5.74A5.74,5.74,0,0,0,658.05,1448.5Z" transform="translate(-82.64 -434.04)"/></svg>