<svg id="Layer_1" data-name="Layer 1" xmlns="http://www.w3.org/2000/svg" xmlns:xlink="http://www.w3.org/1999/xlink" viewBox="0 0 288 288"><defs><style>.cls-1{fill:url(#linear-gradient);}.cls-2{fill:#fff;}</style><linearGradient id="linear-gradient" x1="17.32" y1="17.32" x2="270.68" y2="270.68" gradientUnits="userSpaceOnUse"><stop offset="0" stop-color="#60e294"/><stop offset="1" stop-color="#41c2e5"/></linearGradient></defs><rect class="cls-1" width="288" height="288" rx="59.15"/><path class="cls-2" d="M114.59,200.75h-7q-10.84,0-17-8.16t-6.15-23.9V156.35a86.16,86.16,0,0,0-.78-11.51,29.12,29.12,0,0,0-3-9.94,15.77,15.77,0,0,0-5.85-6.26,17.49,17.49,0,0,0-8.93-2.11H64.56V113.61h1.27a17.39,17.39,0,0,0,8.93-2.11,15.71,15.71,0,0,0,5.85-6.26,29.12,29.12,0,0,0,3-9.94,86.16,86.16,0,0,0,.78-11.51V71.45q0-15.73,6.15-23.9t17-8.16h7V50.82h-4.85a17.41,17.41,0,0,0-6.18,1,10.31,10.31,0,0,0-4.48,3.39,16.94,16.94,0,0,0-2.88,6.88,52.92,52.92,0,0,0-.94,10.77V87.35a48.12,48.12,0,0,1-1.15,11.43,35.36,35.36,0,0,1-3.39,8.7,27,27,0,0,1-5.21,6.67,32.89,32.89,0,0,1-6.66,4.93v2A32.5,32.5,0,0,1,85.48,126a28.6,28.6,0,0,1,5.24,6.67,35.67,35.67,0,0,1,3.39,8.7,48.12,48.12,0,0,1,1.15,11.43v14.5a52.75,52.75,0,0,0,.94,10.76,16.94,16.94,0,0,0,2.88,6.88,10,10,0,0,0,4.45,3.4,17.67,17.67,0,0,0,6.21,1h4.85Z"/><path class="cls-2" d="M167.36,59.05,131.14,175.84h-10.5l36-116.79Z"/><rect class="cls-2" x="118.64" y="189.54" width="50.71" height="11.58" rx="5.01"/><rect class="cls-2" x="118.64" y="208.45" width="50.71" height="11.58" rx="5.01"/><rect class="cls-2" x="118.64" y="227.35" width="50.71" height="11.58" rx="5.01"/><ellipse class="cls-2" cx="144" cy="238.93" rx="14.94" ry="9.67"/><path class="cls-2" d="M173.41,189.32h4.85a17.67,17.67,0,0,0,6.21-1,10,10,0,0,0,4.45-3.4,16.94,16.94,0,0,0,2.88-6.88,52.75,52.75,0,0,0,.94-10.76v-14.5a48.12,48.12,0,0,1,1.15-11.43,35.67,35.67,0,0,1,3.39-8.7,28.6,28.6,0,0,1,5.24-6.67,32.5,32.5,0,0,1,6.63-4.92v-2a32.89,32.89,0,0,1-6.66-4.93,27,27,0,0,1-5.21-6.67,35.36,35.36,0,0,1-3.39-8.7,48.12,48.12,0,0,1-1.15-11.43V72.86a52.92,52.92,0,0,0-.94-10.77,16.94,16.94,0,0,0-2.88-6.88,10.31,10.31,0,0,0-4.48-3.39,17.41,17.41,0,0,0-6.18-1h-4.85V39.39h7q10.84,0,17,8.16t6.15,23.9V83.79a86.16,86.16,0,0,0,.78,11.51,29.12,29.12,0,0,0,3,9.94,15.71,15.71,0,0,0,5.85,6.26,17.39,17.39,0,0,0,8.93,2.11h1.27v12.92h-1.27a17.49,17.49,0,0,0-8.93,2.11,15.77,15.77,0,0,0-5.85,6.26,29.12,29.12,0,0,0-3,9.94,86.16,86.16,0,0,0-.78,11.51v12.34q0,15.75-6.15,23.9t-17,8.16h-7Z"/></svg>